<?xml version="1.0" encoding="UTF-8" standalone="no"?>
<!-- Created with Inkscape (http://www.inkscape.org/) -->
<svg id="svg2" xmlns:rdf="http://www.w3.org/1999/02/22-rdf-syntax-ns#" xmlns="http://www.w3.org/2000/svg" height="794" width="749" version="1.1" xmlns:cc="http://creativecommons.org/ns#" xmlns:dc="http://purl.org/dc/elements/1.1/">
 <metadata id="metadata7">
  <rdf:RDF>
   <cc:Work rdf:about="">
    <dc:format>image/svg+xml</dc:format>
    <dc:type rdf:resource="http://purl.org/dc/dcmitype/StillImage"/>
    <dc:title/>
   </cc:Work>
  </rdf:RDF>
 </metadata>
 <g id="layer1" transform="translate(-374.07144,-443.93362)">
  <g id="g3050" transform="translate(2.8571386,2.8571457)">
   <path id="path3064" fill="#b1b1b1" d="m738.57,1233.9c-1.1-0.4452-69.5-39.037-152-85.76-104.75-59.322-150.37-85.664-151.23-87.316-1.5158-2.9174-59.576-484.99-58.526-485.94,1.8381-1.6584,371.97-131.01,373.76-130.62,1.7766,0.38836,370.64,127.73,371.24,128.16,0.4428,0.31918-57.706,482.99-58.48,485.42-0.6141,1.9278-30.875,18.738-156.26,86.807-85.525,46.429-157.98,85.684-161,87.235-3.8777,1.9876-6.0899,2.5803-7.5,2.0096zm-158.5-213.76,15.5-0.6831,22.558-56.258c12.407-30.942,23-56.7,23.54-57.24,0.60929-0.60929,19.398-1.0814,49.442-1.2425l48.46-0.25973,0.26366-32.75,0.26367-32.75-32.764-0.0153c-18.02-0.008-33.374-0.40224-34.121-0.87516-0.85322-0.54062-1.1058-1.6512-0.68048-2.9914,0.37209-1.1724,15.822-37.791,34.334-81.375l33.657-79.243,0.0194-17c0.0871-76.317-0.59302-140.78-1.476-139.9-1.2777,1.2777-226,501.16-226,502.73-0.00064,1.2578,36.919,1.1745,67.001-0.151z"/>
   <path id="path3062" fill="#929292" d="m654.51,1146.8c-46.716-25.896-109.33-60.617-139.14-77.158-29.812-16.541-54.453-30.725-54.759-31.521-0.30529-0.7955-11.806-98.916-25.557-218.05-20.094-174.08-24.755-216.84-23.741-217.84,1.5519-1.527,326.27-117.35,329-117.35,2.3436,0,336.85,113.84,338.2,115.09,0.8083,0.75533-52.702,432.84-54.034,436.31-0.4549,1.1855-282.42,157.59-284.1,157.59-0.5043,0-39.139-21.188-85.855-47.084zm-72.084-125.75,13.854-0.6634,22.794-57,22.794-57,102.85-0.71629c80.224-0.55872,103.11-0.44872,104.03,0.5,0.64848,0.66896,12.294,26.979,25.879,58.466l24.7,57.25h11.623c6.3928,0,24.111,0.2985,39.373,0.6608,22.993,0.546,27.75,0.4268,27.75-0.695,0-0.7446-40.926-88.679-90.947-195.41-50.01-106.63-103.31-220.51-118.44-252.96-15.129-32.45-28.038-59-28.688-59-1.2608,0-229.21,506.2-228.49,507.38,0.48911,0.7914,49.84,0.292,70.928-0.7177zm91.823-184.03c-1.0186-0.64583,6.3674-19.079,32.149-80.235,19.069-45.233,34.064-79.517,34.849-79.677,0.9299-0.18921,13.635,25.329,39.101,78.538,20.748,43.35,37.724,79.589,37.724,80.53,0,1.6005-4.6516,1.7113-71.25,1.697-39.188-0.008-71.845-0.39262-72.572-0.85378z"/>
   <path id="path3060" fill="#7c7c7c" d="m737.6,1191.4c-1.4966-0.7764-64.109-35.452-139.14-77.056-104.24-57.803-136.53-76.143-136.91-77.759-0.26972-1.1632-11.67-98.865-25.333-217.11-18.163-157.19-24.548-215.32-23.745-216.19,1.0938-1.183,325.94-117.31,328.16-117.31,1.7832,0,335.83,113.99,336.75,114.91,0.447,0.44605-7.9908,70.96-18.751,156.7-10.76,85.738-22.992,183.34-27.183,216.89-4.1909,33.55-8.1281,61.517-8.7493,62.149-1.0769,1.0953-278.04,154.53-280.97,155.65-0.77401,0.2971-2.6318-0.095-4.1284-0.8717zm-180.08-168.9c23.002-0.3276,38.341-0.9312,38.942-1.5323,0.54551-0.5455,11.143-26.308,23.549-57.249l22.558-56.258,101-0.71575c55.55-0.39367,101.9-0.52031,103-0.28142,1.584,0.344,7.074,12.245,26.394,57.216,13.417,31.23,24.892,57.315,25.5,57.966,0.79495,0.8518,12.471,1.3869,41.512,1.9023,39.414,0.6996,40.393,0.6704,39.874-1.1851-0.29288-1.0463-31.459-67.827-69.258-148.4-63.99-136.5-156.06-333.18-165.39-353.41-2.3826-5.1656-4.5753-8.675-5.2746-8.4419-0.65827,0.21942-52.661,114.89-115.56,254.83-101.33,225.43-114.18,254.56-112.74,255.62,0.89319,0.6531,3.0478,1.015,4.7879,0.8042,1.7402-0.2109,20.242-0.6266,41.115-0.9239zm117.18-186.32c-0.42888-0.69394,62.092-150.18,65.277-156.08,0.70037-1.2966,1.6191-1.9716,2.0417-1.5,1.1464,1.2793,75.046,156.27,75.046,157.39,0,1.173-141.64,1.3569-142.37,0.18489z"/>
   <path id="path3058" fill="#787878" d="m740.07,1191.8c0-0.6063-0.75029-0.7877-1.7195-0.4158-0.94573,0.3629-1.3986,0.3389-1.0064-0.053,1.0416-1.0417-3.0702-3.6366-4.4304-2.796-0.76638,0.4737-0.87839,0.2685-0.3342-0.612,0.59931-0.9697,0.35895-1.1481-0.89743-0.666-1.1564,0.4438-1.4825,0.2807-1-0.5,0.4949-0.8007,0.13437-0.9353-1.1676-0.4357-1.036,0.3976-1.5626,0.4019-1.1704,0.01,1.0416-1.0416-3.0702-3.6366-4.4304-2.7959-0.76638,0.4736-0.87839,0.2685-0.3342-0.612,0.59931-0.9698,0.35895-1.1481-0.89743-0.666-1.1564,0.4438-1.4825,0.2807-1-0.5s0.15641-0.9438-1-0.5c-0.94584,0.3629-1.4618,0.2471-1.1495-0.2581,0.5611-0.9078-3.1999-2.663-4.7869-2.2339-0.45338,0.1226-0.49206-0.3147-0.086-0.9718,0.508-0.822,0.203-0.9893-0.97761-0.5362-1.1564,0.4438-1.4825,0.2807-1-0.5s0.15641-0.9438-1-0.5c-0.94584,0.3629-1.4618,0.2471-1.1495-0.2581,0.5611-0.9078-3.1999-2.663-4.7869-2.2339-0.45338,0.1226-0.49206-0.3147-0.086-0.9718,0.508-0.822,0.203-0.9893-0.97761-0.5362-1.1564,0.4438-1.4825,0.2807-1-0.5s0.15641-0.9438-1-0.5c-0.94584,0.3629-1.4618,0.2471-1.1495-0.2581,0.5611-0.9078-3.1999-2.663-4.7869-2.2339-0.45338,0.1226-0.49206-0.3147-0.086-0.9718,0.508-0.822,0.203-0.9893-0.97761-0.5362-1.1564,0.4438-1.4825,0.2807-1-0.5s0.15641-0.9438-1-0.5c-0.94584,0.3629-1.4618,0.2471-1.1495-0.2581,0.5611-0.9078-3.1999-2.663-4.7869-2.2339-0.45338,0.1226-0.49206-0.3147-0.086-0.9718,0.508-0.822,0.203-0.9893-0.97761-0.5362-1.1564,0.4438-1.4825,0.2807-1-0.5s0.15641-0.9438-1-0.5c-0.94584,0.3629-1.4618,0.2471-1.1495-0.2581,0.5611-0.9078-3.1999-2.663-4.7869-2.2339-0.45338,0.1226-0.49206-0.3147-0.086-0.9718,0.508-0.822,0.203-0.9893-0.97761-0.5362-1.1564,0.4438-1.4825,0.2807-1-0.5s0.15641-0.9438-1-0.5c-0.94584,0.3629-1.4618,0.2471-1.1495-0.2581,0.5611-0.9078-3.1999-2.663-4.7869-2.2339-0.45338,0.1226-0.49206-0.3147-0.086-0.9718,0.508-0.822,0.203-0.9893-0.97761-0.5362-1.1564,0.4438-1.4825,0.2807-1-0.5s0.15641-0.9438-1-0.5c-0.94584,0.3629-1.4618,0.2471-1.1495-0.2581,0.5611-0.9078-3.1999-2.663-4.7869-2.2339-0.45338,0.1226-0.49206-0.3147-0.086-0.9718,0.508-0.822,0.203-0.9893-0.97761-0.5362-1.1564,0.4438-1.4825,0.2807-1-0.5s0.15641-0.9438-1-0.5c-0.94584,0.3629-1.4618,0.2471-1.1495-0.2581,0.5611-0.9078-3.1999-2.663-4.7869-2.2339-0.45338,0.1226-0.49206-0.3147-0.086-0.9718,0.508-0.822,0.203-0.9893-0.97761-0.5362-1.1564,0.4438-1.4825,0.2807-1-0.5s0.15641-0.9438-1-0.5c-0.94584,0.3629-1.4618,0.2471-1.1495-0.2581,0.5611-0.9078-3.1999-2.663-4.7869-2.2339-0.45338,0.1226-0.49206-0.3147-0.086-0.9718,0.508-0.822,0.203-0.9893-0.97761-0.5362-1.1564,0.4438-1.4825,0.2807-1-0.5s0.15641-0.9438-1-0.5-1.4825,0.2807-1-0.5c0.4949-0.8008,0.13437-0.9353-1.1676-0.4357-1.036,0.3975-1.5626,0.4019-1.1704,0.01,1.0416-1.0416-3.0702-3.6366-4.4304-2.796-0.76638,0.4737-0.87839,0.2685-0.3342-0.612,0.59931-0.9697,0.35895-1.1481-0.89743-0.6659-1.1564,0.4437-1.4825,0.2807-1-0.5,0.4949-0.8008,0.13437-0.9353-1.1676-0.4357-1.036,0.3975-1.5626,0.4018-1.1704,0.01,1.0416-1.0417-3.0702-3.6366-4.4304-2.796-0.76638,0.4736-0.87839,0.2685-0.3342-0.612,0.59931-0.9697,0.35895-1.1481-0.89743-0.666-1.1564,0.4438-1.4825,0.2807-1-0.5,0.4949-0.8008,0.13437-0.9353-1.1676-0.4357-1.036,0.3976-1.5626,0.4019-1.1704,0.01,1.0416-1.0416-3.0702-3.6366-4.4304-2.796-0.76638,0.4737-0.87839,0.2686-0.3342-0.612,0.59931-0.9697,0.35895-1.148-0.89743-0.6659-1.1564,0.4437-1.4825,0.2807-1-0.5s0.15641-0.9438-1-0.5c-0.94584,0.3629-1.4618,0.2471-1.1495-0.2581,0.5611-0.9079-3.1999-2.663-4.7869-2.2339-0.45338,0.1226-0.49206-0.3147-0.0859-0.9718,0.508-0.822,0.203-0.9893-0.97761-0.5362-1.1564,0.4437-1.4825,0.2807-1-0.5s0.15641-0.9438-1-0.5c-0.94584,0.3629-1.4618,0.2471-1.1495-0.2581,0.5611-0.9079-3.1999-2.663-4.7869-2.2339-0.45338,0.1226-0.49206-0.3147-0.0859-0.9718,0.508-0.822,0.203-0.9893-0.97761-0.5362-1.1564,0.4437-1.4825,0.2807-1-0.5s0.15641-0.9438-1-0.5c-0.94584,0.3629-1.4618,0.2471-1.1495-0.2581,0.5611-0.9079-3.1999-2.663-4.7869-2.2339-0.45338,0.1226-0.49206-0.3147-0.0859-0.9718,0.508-0.822,0.203-0.9893-0.97761-0.5362-1.1564,0.4437-1.4825,0.2807-1-0.5s0.15641-0.9438-1-0.5c-0.94584,0.3629-1.4618,0.2471-1.1495-0.2581,0.5611-0.9079-3.1999-2.663-4.7869-2.2339-0.45338,0.1226-0.49206-0.3147-0.0859-0.9718,0.508-0.822,0.203-0.9893-0.97761-0.5362-1.1564,0.4437-1.4825,0.2807-1-0.5s0.15641-0.9438-1-0.5c-0.94584,0.3629-1.4618,0.2471-1.1495-0.2581,0.5611-0.9079-3.1999-2.663-4.7869-2.2339-0.45338,0.1226-0.49206-0.3147-0.0859-0.9718,0.508-0.822,0.203-0.9893-0.97761-0.5362-1.1564,0.4437-1.4825,0.2807-1-0.5s0.15641-0.9438-1-0.5c-0.94584,0.3629-1.4618,0.2471-1.1495-0.2581,0.5611-0.9079-3.1999-2.663-4.7869-2.2339-0.45338,0.1226-0.49206-0.3147-0.0859-0.9718,0.508-0.822,0.203-0.9893-0.97761-0.5362-1.1564,0.4437-1.4825,0.2807-1-0.5s0.15641-0.9438-1-0.5c-0.94584,0.3629-1.4618,0.2471-1.1495-0.2581,0.5611-0.9079-3.1999-2.663-4.7869-2.2339-0.45338,0.1226-0.49206-0.3147-0.0859-0.9718,0.508-0.822,0.203-0.9893-0.97761-0.5362-1.1564,0.4437-1.4825,0.2807-1-0.5s0.15641-0.9438-1-0.5c-0.94584,0.3629-1.4618,0.2471-1.1495-0.2581,0.5611-0.9079-3.1999-2.663-4.7869-2.2339-0.45338,0.1226-0.49206-0.3147-0.0859-0.9718,0.508-0.822,0.203-0.9893-0.97761-0.5362-1.1564,0.4437-1.4825,0.2807-1-0.5s0.15641-0.9438-1-0.5c-0.94584,0.3629-1.4618,0.2471-1.1495-0.2581,0.5611-0.9079-3.1999-2.663-4.7869-2.2339-0.45338,0.1226-0.49206-0.3147-0.0859-0.9718,0.508-0.822,0.203-0.9893-0.97761-0.5362-1.1564,0.4437-1.4825,0.2807-1-0.5s0.15641-0.9438-1-0.5c-1.1564,0.4437-1.4825,0.2807-1-0.5,0.4949-0.8008,0.13437-0.9353-1.1676-0.4357-1.036,0.3975-1.5626,0.4018-1.1704,0.01,1.0416-1.0417-3.0702-3.6366-4.4304-2.796-0.76638,0.4736-0.87839,0.2685-0.3342-0.612,0.59931-0.9697,0.35895-1.1481-0.89743-0.666-1.1564,0.4438-1.4825,0.2807-1-0.5,0.4949-0.8007,0.13437-0.9353-1.1676-0.4357-1.036,0.3976-1.5626,0.4019-1.1704,0.01,1.0416-1.0416-3.0702-3.6366-4.4304-2.7959-0.76638,0.4736-0.87839,0.2685-0.3342-0.612,0.59931-0.9698,0.35895-1.1481-0.89743-0.666-1.1564,0.4438-1.4825,0.2807-1-0.5s0.15641-0.9438-1-0.5c-0.94584,0.3629-1.4618,0.2471-1.1495-0.2581,0.5611-0.9078-3.1999-2.663-4.7869-2.2339-0.45338,0.1226-0.49206-0.3147-0.0859-0.9718,0.508-0.822,0.203-0.9893-0.97761-0.5362-1.1564,0.4438-1.4825,0.2807-1-0.5s0.15641-0.9438-1-0.5c-0.94584,0.3629-1.4618,0.2471-1.1495-0.2581,0.5611-0.9078-3.1999-2.663-4.7869-2.2339-0.45338,0.1226-0.49206-0.3147-0.0859-0.9718,0.508-0.822,0.203-0.9893-0.97761-0.5362-1.1564,0.4438-1.4825,0.2807-1-0.5s0.15641-0.9438-1-0.5c-0.94584,0.3629-1.4618,0.2471-1.1495-0.2581,0.5611-0.9078-3.1999-2.663-4.7869-2.2339-0.45338,0.1226-0.49206-0.3147-0.0859-0.9718,0.508-0.822,0.203-0.9893-0.97761-0.5362-1.1564,0.4438-1.4825,0.2807-1-0.5s0.15641-0.9438-1-0.5c-0.94584,0.3629-1.4618,0.2471-1.1495-0.2581,0.5611-0.9078-3.1999-2.663-4.7869-2.2339-0.45338,0.1226-0.49206-0.3147-0.0859-0.9718,0.508-0.822,0.203-0.9893-0.97761-0.5362-1.1564,0.4438-1.4825,0.2807-1-0.5s0.15641-0.9438-1-0.5c-0.94584,0.3629-1.4618,0.2471-1.1495-0.2581,0.5611-0.9078-3.1999-2.663-4.7869-2.2339-0.45338,0.1226-0.49206-0.3147-0.086-0.9718,0.50801-0.822,0.203-0.9893-0.97761-0.5362-1.0785,0.4139-1.4737,0.2664-1.0637-0.397,0.38744-0.6269-0.099-0.9267-1.1981-0.7385-1.3288,0.2276-1.761-0.2047-1.5335-1.5335,0.17428-1.0177-0.10702-1.5883-0.62512-1.2681-0.56125,0.3468-0.7597-1.3304-0.49099-4.1497,0.32693-3.43,0.16834-4.3245-0.57643-3.2512-0.73121,1.0537-0.8741-0.2437-0.49559-4.5,0.37983-4.2712,0.23692-5.5574-0.5-4.5-0.73693,1.0574-0.87984-0.2288-0.5-4.5,0.38718-4.3538,0.24494-5.5726-0.52292-4.4806-0.76947,1.0943-0.90426,0.012-0.49832-4,0.39875-3.9413,0.26355-5.0804-0.47708-4.0194-0.7391,1.0588-0.88202-0.2231-0.50168-4.5,0.37983-4.2712,0.23692-5.5574-0.5-4.5-0.73693,1.0574-0.87984-0.22879-0.5-4.5,0.38718-4.3538,0.24494-5.5726-0.52292-4.4806-0.76947,1.0943-0.90426,0.0123-0.49832-4,0.39875-3.9413,0.26355-5.0804-0.47708-4.0194-0.7391,1.0588-0.88202-0.22314-0.50168-4.5,0.37983-4.2712,0.23692-5.5574-0.5-4.5-0.73693,1.0574-0.87984-0.22879-0.5-4.5,0.38718-4.3538,0.24494-5.5726-0.52292-4.4806-0.76947,1.0943-0.90426,0.0123-0.49832-4,0.39875-3.9413,0.26355-5.0804-0.47708-4.0194-0.7391,1.0588-0.88202-0.22314-0.50168-4.5,0.37983-4.2712,0.23692-5.5574-0.5-4.5-0.73693,1.0574-0.87984-0.22879-0.5-4.5,0.38718-4.3538,0.24494-5.5726-0.52292-4.4806-0.76947,1.0943-0.90426,0.0124-0.49832-4,0.39875-3.9413,0.26355-5.0804-0.47708-4.0194-0.7391,1.0588-0.88202-0.22314-0.50168-4.5,0.38718-4.3538,0.24494-5.5726-0.52292-4.4806-0.76607,1.0894-0.8817,0.0202-0.42247-3.9066,0.45097-3.856,0.31267-5.209-0.48224-4.7177-0.78976,0.48809-0.95756-0.85045-0.57585-4.5934,0.38727-3.7975,0.24817-4.8661-0.49484-3.8016-0.7391,1.0588-0.88202-0.22314-0.50168-4.5,0.38718-4.3538,0.24494-5.5726-0.52292-4.4806-0.76607,1.0894-0.8817,0.0202-0.42247-3.9066,0.45097-3.856,0.31267-5.209-0.48224-4.7177-0.78976,0.48809-0.95756-0.85045-0.57585-4.5934,0.38727-3.7975,0.24817-4.8661-0.49484-3.8016-0.7391,1.0588-0.88202-0.22314-0.50168-4.5,0.38718-4.3538,0.24494-5.5726-0.52292-4.4806-0.76607,1.0894-0.8817,0.0202-0.42247-3.9066,0.45097-3.856,0.31267-5.209-0.48224-4.7177-0.78976,0.48809-0.95756-0.85045-0.57585-4.5934,0.38727-3.7975,0.24817-4.8661-0.49484-3.8016-0.7391,1.0588-0.88202-0.22314-0.50168-4.5,0.38718-4.3538,0.24494-5.5726-0.52292-4.4806-0.76607,1.0894-0.8817,0.0202-0.42247-3.9066,0.45097-3.856,0.31267-5.209-0.48224-4.7177-0.78976,0.48809-0.95756-0.85045-0.57585-4.5934,0.38727-3.7975,0.24817-4.8661-0.49484-3.8016-0.7391,1.0588-0.88202-0.22314-0.50168-4.5,0.38718-4.3538,0.24494-5.5726-0.52292-4.4806-0.76607,1.0894-0.8817,0.0202-0.42247-3.9066,0.45097-3.856,0.31267-5.209-0.48224-4.7177-0.78976,0.48809-0.95756-0.85045-0.57585-4.5934,0.38727-3.7975,0.24817-4.8661-0.49484-3.8016-0.7391,1.0588-0.88202-0.22314-0.50168-4.5,0.38718-4.3538,0.24494-5.5726-0.52292-4.4806-0.76607,1.0894-0.8817,0.0202-0.42247-3.9066,0.45097-3.856,0.31267-5.209-0.48224-4.7177-0.78976,0.48809-0.95756-0.85045-0.57585-4.5934,0.38727-3.7975,0.24817-4.8661-0.49484-3.8016-0.7391,1.0588-0.88202-0.22314-0.50168-4.5,0.38718-4.3538,0.24494-5.5726-0.52292-4.4806-0.76607,1.0894-0.8817,0.0202-0.42247-3.9066,0.41284-3.53,0.28251-5.1904-0.3755-4.7837-0.64697,0.39985-0.85671-1.2448-0.58581-4.5934,0.30383-3.7558,0.13539-4.8017-0.60159-3.7357-0.72618,1.0504-0.86904-0.25699-0.49171-4.5,0.38718-4.3538,0.24494-5.5726-0.52292-4.4806-0.76607,1.0894-0.8817,0.0202-0.42247-3.9066,0.41284-3.53,0.28251-5.1904-0.3755-4.7837-0.64697,0.39985-0.85671-1.2448-0.58581-4.5934,0.30383-3.7558,0.13539-4.8017-0.60159-3.7357-0.72618,1.0504-0.86904-0.25699-0.49171-4.5,0.38718-4.3538,0.24494-5.5726-0.52292-4.4806-0.76607,1.0894-0.8817,0.0202-0.42247-3.9066,0.41284-3.53,0.28251-5.1904-0.3755-4.7837-0.64697,0.39985-0.85671-1.2448-0.58581-4.5934,0.30383-3.7558,0.13539-4.8017-0.60159-3.7357-0.72618,1.0504-0.86904-0.25699-0.49171-4.5,0.38718-4.3538,0.24494-5.5726-0.52292-4.4806-0.76947,1.0943-0.90426,0.0123-0.49832-4,0.39875-3.9413,0.26355-5.0804-0.47708-4.0194-0.7391,1.0588-0.88202-0.22314-0.50168-4.5,0.37983-4.2712,0.23692-5.5574-0.5-4.5-0.73693,1.0574-0.87984-0.22879-0.5-4.5,0.38718-4.3538,0.24494-5.5726-0.52292-4.4806-0.76947,1.0943-0.90426,0.0123-0.49832-4,0.39875-3.9413,0.26355-5.0804-0.47708-4.0194-0.7391,1.0588-0.88202-0.22314-0.50168-4.5,0.37983-4.2712,0.23692-5.5574-0.5-4.5-0.73693,1.0574-0.87984-0.22879-0.5-4.5,0.38718-4.3538,0.24494-5.5726-0.52292-4.4806-0.76947,1.0943-0.90426,0.0123-0.49832-4,0.39875-3.9413,0.26355-5.0804-0.47708-4.0194-0.7391,1.0588-0.88202-0.22314-0.50168-4.5,0.41571-4.6747,0.27701-5.6531-0.6352-4.4806-0.95346,1.2255-1.0622,1.0425-0.59396-1,0.3152-1.375,0.57924-4.1734,0.58675-6.2186,0.0112-3.0547,0.31074-3.6046,1.6777-3.0801,1.0525,0.4039,1.4195,0.2429,0.99862-0.43812-0.43063-0.69678,0.0959-0.87758,1.4923-0.51242,1.3827,0.36158,1.9215,0.18197,1.5-0.5-0.42148-0.68197,0.11733-0.86157,1.5-0.5,1.3827,0.36158,1.9215,0.18197,1.5-0.5-0.42148-0.68197,0.11733-0.86157,1.5-0.5,1.4676,0.3838,1.9312,0.19773,1.4494-0.5818-0.45921-0.74301-0.16251-0.93663,0.84363-0.55054,0.85336,0.32538,1.5517,0.10935,1.5517-0.48224,0-0.59237,0.74759-0.78872,1.664-0.43705,1.0525,0.4039,1.4195,0.2429,0.99862-0.43812-0.43063-0.69678,0.0959-0.87758,1.4923-0.51242,1.3827,0.36158,1.9215,0.18197,1.5-0.5-0.42148-0.68197,0.11733-0.86157,1.5-0.5,1.3827,0.36158,1.9215,0.18197,1.5-0.5-0.42148-0.68197,0.11733-0.86157,1.5-0.5,1.4676,0.3838,1.9312,0.19773,1.4494-0.5818-0.4592-0.74301-0.16251-0.93663,0.84363-0.55054,0.85357,0.32755,1.5519,0.11152,1.5519-0.48007,0-0.59237,0.74759-0.78872,1.664-0.43705,1.0525,0.4039,1.4195,0.2429,0.99862-0.43812-0.43063-0.69678,0.0959-0.87758,1.4923-0.51242,1.3827,0.36158,1.9215,0.18197,1.5-0.5-0.42148-0.68197,0.11733-0.86157,1.5-0.5,1.3827,0.36158,1.9215,0.18197,1.5-0.5-0.42148-0.68197,0.11733-0.86157,1.5-0.5,1.4676,0.3838,1.9312,0.19773,1.4494-0.5818-0.4592-0.74301-0.16251-0.93663,0.84363-0.55054,0.85357,0.32755,1.5519,0.11152,1.5519-0.48007,0-0.59237,0.74759-0.78872,1.664-0.43705,1.0525,0.4039,1.4195,0.2429,0.99862-0.43812-0.43063-0.69678,0.0959-0.87758,1.4923-0.51242,1.3827,0.36158,1.9215,0.18197,1.5-0.5-0.42148-0.68197,0.11733-0.86157,1.5-0.5,1.3827,0.36158,1.9215,0.18197,1.5-0.5-0.42148-0.68197,0.11733-0.86157,1.5-0.5,1.4676,0.3838,1.9312,0.19773,1.4494-0.5818-0.4592-0.74301-0.16251-0.93663,0.84363-0.55054,0.85357,0.32755,1.5519,0.11152,1.5519-0.48007,0-0.59237,0.74759-0.78872,1.664-0.43705,1.0525,0.4039,1.4195,0.2429,0.99862-0.43812-0.43063-0.69678,0.0959-0.87758,1.4923-0.51242,1.3827,0.36158,1.9215,0.18197,1.5-0.5-0.42148-0.68197,0.11733-0.86157,1.5-0.5,1.3827,0.36158,1.9215,0.18197,1.5-0.5-0.42148-0.68197,0.11733-0.86157,1.5-0.5,1.4676,0.3838,1.9312,0.19773,1.4494-0.5818-0.4592-0.74301-0.16251-0.93663,0.84363-0.55054,0.85357,0.32755,1.5519,0.11152,1.5519-0.48007,0-0.59237,0.74759-0.78872,1.664-0.43705,1.0525,0.4039,1.4195,0.2429,0.99863-0.43812-0.43064-0.69678,0.0959-0.87758,1.4923-0.51242,1.3827,0.36158,1.9215,0.18197,1.5-0.5-0.42148-0.68197,0.11733-0.86157,1.5-0.5,1.3827,0.36158,1.9215,0.18197,1.5-0.5-0.42148-0.68197,0.11733-0.86157,1.5-0.5,1.4676,0.3838,1.9312,0.19773,1.4494-0.5818-0.4592-0.74301-0.16251-0.93663,0.84363-0.55054,0.85357,0.32755,1.5519,0.14739,1.5519-0.40034s0.5625-0.97499,1.25-0.94945c3.1362,0.11647,4.8218-0.34347,4.3076-1.1754-0.30822-0.49871,0.41059-0.65282,1.5974-0.34248,1.3827,0.36158,1.9215,0.18197,1.5-0.5-0.42148-0.68197,0.11733-0.86157,1.5-0.5,1.3827,0.36158,1.9215,0.18197,1.5-0.5-0.42148-0.68197,0.11733-0.86157,1.5-0.5,1.3603,0.35572,1.9192,0.17819,1.5121-0.48035-0.35508-0.57454-0.0879-1.0245,0.59363-0.99999,3.133,0.11283,4.8102-0.34664,4.2969-1.1772-0.30822-0.49871,0.41059-0.65282,1.5974-0.34248,1.3827,0.36158,1.9215,0.18197,1.5-0.5-0.42148-0.68197,0.11733-0.86157,1.5-0.5,1.3827,0.36158,1.9215,0.18197,1.5-0.5-0.42148-0.68197,0.11733-0.86157,1.5-0.5,1.4676,0.3838,1.9312,0.19773,1.4494-0.5818-0.4592-0.74301-0.16251-0.93663,0.84363-0.55054,0.85357,0.32755,1.5519,0.11152,1.5519-0.48007,0-0.59237,0.74759-0.78872,1.664-0.43705,1.0525,0.4039,1.4195,0.2429,0.99863-0.43812-0.43064-0.69678,0.0959-0.87758,1.4923-0.51242,1.3827,0.36158,1.9215,0.18197,1.5-0.5-0.42148-0.68197,0.11733-0.86157,1.5-0.5,1.3827,0.36158,1.9215,0.18197,1.5-0.5-0.42148-0.68197,0.11733-0.86157,1.5-0.5,1.4676,0.3838,1.9312,0.19773,1.4494-0.5818-0.4592-0.74301-0.16251-0.93663,0.84363-0.55054,0.85357,0.32755,1.5519,0.11152,1.5519-0.48007,0-0.59237,0.74759-0.78872,1.664-0.43705,1.0525,0.4039,1.4195,0.2429,0.99863-0.43812-0.43064-0.69678,0.0959-0.87758,1.4923-0.51242,1.3827,0.36158,1.9215,0.18197,1.5-0.5-0.42148-0.68197,0.11733-0.86157,1.5-0.5,1.3827,0.36158,1.9215,0.18197,1.5-0.5-0.42148-0.68197,0.11733-0.86157,1.5-0.5,1.4676,0.3838,1.9312,0.19773,1.4494-0.5818-0.4592-0.74301-0.16251-0.93663,0.84363-0.55054,0.85357,0.32755,1.5519,0.11152,1.5519-0.48007,0-0.59237,0.74759-0.78872,1.664-0.43705,1.0525,0.4039,1.4195,0.2429,0.99863-0.43812-0.43064-0.69678,0.0959-0.87758,1.4923-0.51242,1.3827,0.36158,1.9215,0.18197,1.5-0.5-0.42148-0.68197,0.11733-0.86157,1.5-0.5,1.3827,0.36158,1.9215,0.18197,1.5-0.5-0.42148-0.68197,0.11733-0.86157,1.5-0.5,1.4676,0.3838,1.9312,0.19773,1.4494-0.5818-0.4592-0.74301-0.16251-0.93663,0.84363-0.55054,0.85357,0.32755,1.5519,0.11152,1.5519-0.48007,0-0.59237,0.74759-0.78872,1.664-0.43705,1.0525,0.4039,1.4195,0.2429,0.99863-0.43812-0.43064-0.69678,0.0959-0.87758,1.4923-0.51242,1.3827,0.36158,1.9215,0.18197,1.5-0.5-0.42148-0.68197,0.11733-0.86157,1.5-0.5,1.3827,0.36158,1.9215,0.18197,1.5-0.5-0.42148-0.68197,0.11733-0.86157,1.5-0.5,1.4676,0.3838,1.9312,0.19773,1.4494-0.5818-0.4592-0.74301-0.16251-0.93663,0.84363-0.55054,0.85357,0.32755,1.5519,0.11152,1.5519-0.48007,0-0.59237,0.74759-0.78872,1.664-0.43705,1.0525,0.4039,1.4195,0.24289,0.99863-0.43812-0.43064-0.69678,0.0959-0.87758,1.4923-0.51242,1.3827,0.36158,1.9215,0.18197,1.5-0.5-0.42148-0.68197,0.11733-0.86157,1.5-0.5,1.3827,0.36158,1.9215,0.18197,1.5-0.5-0.42148-0.68197,0.11733-0.86157,1.5-0.5,1.4676,0.3838,1.9312,0.19773,1.4494-0.5818-0.4592-0.74301-0.16251-0.93663,0.84363-0.55054,0.85357,0.32755,1.5519,0.14739,1.5519-0.40034s0.5625-0.97499,1.25-0.94946c3.1362,0.11648,4.8218-0.34346,4.3076-1.1754-0.30822-0.49871,0.41059-0.65282,1.5974-0.34248,1.3827,0.36158,1.9215,0.18197,1.5-0.5-0.42148-0.68197,0.11733-0.86157,1.5-0.5,1.3827,0.36158,1.9215,0.18197,1.5-0.5-0.42148-0.68197,0.11733-0.86157,1.5-0.5,1.4676,0.3838,1.9312,0.19773,1.4494-0.5818-0.4592-0.74301-0.16251-0.93663,0.84363-0.55054,0.85357,0.32755,1.5519,0.11152,1.5519-0.48007,0-0.59237,0.74759-0.78872,1.664-0.43705,1.0525,0.4039,1.4195,0.24289,0.99863-0.43812-0.43064-0.69678,0.0959-0.87758,1.4923-0.51242,1.3827,0.36158,1.9215,0.18197,1.5-0.5-0.42148-0.68197,0.11733-0.86157,1.5-0.5,1.3827,0.36158,1.9215,0.18197,1.5-0.5-0.42148-0.68197,0.11733-0.86157,1.5-0.5,1.4676,0.3838,1.9312,0.19773,1.4494-0.5818-0.4592-0.74301-0.16251-0.93663,0.84363-0.55054,0.85357,0.32755,1.5519,0.11152,1.5519-0.48007,0-0.59237,0.74759-0.78872,1.664-0.43705,1.0525,0.4039,1.4195,0.24289,0.99863-0.43812-0.43064-0.69678,0.0959-0.87758,1.4923-0.51242,1.3827,0.36158,1.9215,0.18197,1.5-0.5-0.42148-0.68197,0.11733-0.86157,1.5-0.5,1.3827,0.36158,1.9215,0.18197,1.5-0.5-0.42148-0.68197,0.11733-0.86157,1.5-0.5,1.4676,0.3838,1.9312,0.19773,1.4494-0.5818-0.4592-0.74301-0.16251-0.93663,0.84363-0.55054,0.85357,0.32755,1.5519,0.11152,1.5519-0.48007,0-0.59237,0.74759-0.78872,1.664-0.43705,1.0525,0.4039,1.4195,0.24289,0.99863-0.43812-0.43064-0.69678,0.0959-0.87758,1.4923-0.51242,1.3827,0.36158,1.9215,0.18197,1.5-0.5-0.42148-0.68197,0.11733-0.86157,1.5-0.5,1.3827,0.36158,1.9215,0.18197,1.5-0.5-0.42148-0.68197,0.11733-0.86157,1.5-0.5,1.4676,0.3838,1.9312,0.19773,1.4494-0.5818-0.4592-0.74301-0.16251-0.93663,0.84363-0.55054,0.85357,0.32755,1.5519,0.11152,1.5519-0.48007,0-0.59237,0.74759-0.78872,1.664-0.43705,1.0525,0.4039,1.4195,0.24289,0.99863-0.43812-0.43064-0.69678,0.0959-0.87758,1.4923-0.51242,1.3827,0.36158,1.9215,0.18197,1.5-0.5-0.42148-0.68197,0.11733-0.86157,1.5-0.5,1.3827,0.36158,1.9215,0.18197,1.5-0.5-0.42148-0.68197,0.11733-0.86157,1.5-0.5,1.4676,0.3838,1.9312,0.19773,1.4494-0.5818-0.4592-0.74301-0.16251-0.93663,0.84363-0.55054,0.85357,0.32755,1.5519,0.11152,1.5519-0.48007,0-0.59237,0.74759-0.78872,1.664-0.43705,1.0525,0.4039,1.4195,0.24289,0.99863-0.43812-0.43064-0.69678,0.0959-0.87758,1.4923-0.51242,1.3827,0.36158,1.9215,0.18197,1.5-0.5-0.42148-0.68197,0.11733-0.86157,1.5-0.5,1.3827,0.36158,1.9215,0.18197,1.5-0.5-0.42148-0.68197,0.11733-0.86157,1.5-0.5,1.4676,0.3838,1.9312,0.19773,1.4494-0.5818-0.4592-0.74301-0.16251-0.93663,0.84363-0.55054,0.85357,0.32755,1.5519,0.11152,1.5519-0.48007,0-0.59237,0.74759-0.78872,1.664-0.43705,1.0525,0.4039,1.4195,0.24289,0.99863-0.43812-0.43064-0.69678,0.0959-0.87758,1.4923-0.51242,1.3827,0.36158,1.9215,0.18197,1.5-0.5-0.42148-0.68197,0.11733-0.86157,1.5-0.5,1.3827,0.36158,1.9215,0.18197,1.5-0.5-0.42148-0.68197,0.11733-0.86157,1.5-0.5,1.4676,0.3838,1.9312,0.19773,1.4494-0.5818-0.4592-0.74301-0.16251-0.93663,0.84363-0.55054,0.85357,0.32755,1.5519,0.14739,1.5519-0.40034s0.5625-0.97499,1.25-0.94946c3.1362,0.11648,4.8218-0.34346,4.3076-1.1754-0.30822-0.49871,0.41059-0.65282,1.5974-0.34248,1.3827,0.36158,1.9215,0.18197,1.5-0.5-0.42148-0.68197,0.11733-0.86157,1.5-0.5,1.4676,0.3838,1.9312,0.19773,1.4494-0.5818-0.4592-0.74301-0.16251-0.93663,0.84363-0.55054,0.85357,0.32755,1.5519,0.14739,1.5519-0.40034s0.5625-0.97499,1.25-0.94946c3.1362,0.11648,4.8218-0.34346,4.3076-1.1754-0.30822-0.49871,0.41059-0.65282,1.5974-0.34248,1.3827,0.36158,1.9215,0.18197,1.5-0.5-0.42148-0.68197,0.11733-0.86157,1.5-0.5,1.3827,0.36158,1.9215,0.18197,1.5-0.5-0.42148-0.68197,0.11733-0.86157,1.5-0.5,1.4676,0.3838,1.9312,0.19773,1.4494-0.5818-0.4592-0.74301-0.16251-0.93663,0.84363-0.55054,0.85357,0.32755,1.5519,0.11152,1.5519-0.48007,0-0.59237,0.74759-0.78872,1.664-0.43705,1.0525,0.4039,1.4195,0.24289,0.99863-0.43812-0.43064-0.69678,0.0959-0.87758,1.4923-0.51242,1.3827,0.36158,1.9215,0.18197,1.5-0.5-0.42148-0.68197,0.11733-0.86157,1.5-0.5,1.4786,0.38666,1.9326,0.19993,1.4424-0.59326-0.44694-0.72316,0.005-1.1575,1.2045-1.1575,2.2808,0,336.33,113.74,337.51,114.91,0.447,0.44605-7.9908,70.96-18.751,156.7-10.76,85.738-22.992,183.34-27.183,216.89-4.1909,33.55-8.1281,61.517-8.7493,62.149-1.1065,1.1254-278.09,154.55-281.1,155.7-0.84245,0.3233-1.5317,0.1037-1.5317-0.4878zm-167.38-168.48c12.713-0.3306,23.581-0.8901,24.151-1.2434,0.56987-0.3532,11.251-26.18,23.736-57.392l22.7-56.75,33.649,0.0161c18.507,0.009,63.595-0.51284,100.2-1.1593,36.601-0.64646,67.651-0.89283,69-0.54749,2.1589,0.55266,5.3756,7.4312,26.847,57.409,13.417,31.23,24.892,57.315,25.5,57.967,0.79495,0.8518,12.471,1.3868,41.512,1.9022,39.414,0.6996,40.393,0.6705,39.874-1.1851-0.29288-1.0463-31.459-67.827-69.258-148.4-37.799-80.575-89.654-191.28-115.23-246-58.712-125.61-55.26-118.43-56.375-117.31-0.76682,0.76682-221.54,490.93-228.22,506.69-1.8767,4.4294-1.9196,4.9846-0.46748,6.0464,1.66,1.2138,14.55,1.206,62.389-0.038zm135.52-187.14-32.364-0.27835,0.50029-2.236c0.27516-1.2298,14.768-35.986,32.206-77.236s31.787-75.45,31.886-76c0.0989-0.55,0.53852-1.225,0.97703-1.5,0.75487-0.47339,75.659,154.99,75.659,157.04,0,0.92237-21.671,0.96524-108.86,0.21532z"/>
   <path id="path3056" fill="#6b6b6b" d="m601.07,1114.5c-109.06-60.566-137.66-76.851-138.26-78.728-0.75612-2.3693-49.784-426.6-49.737-430.37,0.0216-1.7503,20.49-9.2884,163.96-60.382l163.93-58.382,167.78,57.196c92.281,31.458,167.93,57.338,168.1,57.512,0.3849,0.38495-53.627,431.44-54.325,433.56-0.6183,1.8739-278.01,155.32-281.44,155.69-1.7624,0.1895-43.357-22.417-140.01-76.092zm-28.385-91.21c12.713-0.3306,23.581-0.8901,24.151-1.2434,0.56987-0.3532,11.224-26.112,23.676-57.242l22.64-56.6,101.71-0.56886c87.356-0.48858,101.87-0.36761,102.82,0.85729,0.61355,0.78438,12.073,26.837,25.465,57.895s24.89,56.676,25.551,56.929c0.66056,0.2534,19.464,0.7837,41.785,1.1782,36.215,0.6401,40.584,0.5513,40.584-0.8252,0-0.8484-40.99-89.005-91.09-195.9-50.09-107-103.94-222.01-119.65-255.67-15.715-33.663-29.171-61.435-29.902-61.716-0.76165-0.29227-1.9265,0.64979-2.7268,2.2054-3.0548,5.9373-228.62,508.32-228.62,509.19,0,2.7798,5.9715,2.9125,63.615,1.4136zm103.39-188.51c0-1.0736,62.031-149.06,64.255-153.29,0.90193-1.7163,1.3705-1.2515,4.0328,4,4.261,8.405,71.712,149.51,71.712,150.02,0,0.23097-31.5,0.41995-70,0.41995-52.028,0-70-0.29482-70-1.1483z"/>
   <path id="path3054" fill="#616161" d="m740.07,1049.7,0-141.47,53.197-0.73634c48.128-0.66617,53.308-0.58402,54.366,0.86229,0.64291,0.87924,12.126,27.009,25.519,58.067,13.392,31.058,24.89,56.676,25.551,56.929,0.66056,0.2534,19.464,0.7837,41.785,1.1782,36.235,0.6405,40.584,0.5519,40.584-0.8269,0-0.8494-37.619-81.806-83.599-179.9-45.979-98.098-99.785-213.01-119.57-255.36-19.783-42.35-36.388-77.15-36.901-77.333-1.1568-0.41337-1.252-24.167-0.0968-24.167,0.94545,0,335.45,113.96,335.94,114.44,0.3845,0.38444-53.629,431.44-54.326,433.56-0.4737,1.4358-276.52,154.68-280.52,155.73-1.9062,0.4984-1.9347-1.5787-1.9347-140.97zm0-291.2c0-42.593,0.36807-77.668,0.81793-77.946,0.44986-0.27803,2.0856,2.0579,3.6349,5.191,5.7029,11.533,71.547,149.37,71.547,149.78,0,0.23097-17.1,0.41995-38,0.41995h-38v-77.441z"/>
   <path id="path3052" fill="#595959" d="m742.07,1049.6,0-140.47,51.384-0.74109c28.261-0.4076,51.91-0.56555,52.554-0.351,0.64366,0.21455,12.22,26.032,25.725,57.372s25.068,57.512,25.696,58.16c0.82962,0.856,12.478,1.2659,42.622,1.5,37.269,0.2895,41.512,0.1609,41.792-1.2668,0.26905-1.3687-43.749-95.741-206.59-442.91l-32.599-69.5-0.37713-11.744-0.37712-11.744,33.334,11.364c18.333,6.2502,93.184,31.742,166.33,56.648,73.15,24.906,133.35,45.589,133.78,45.962,1.1564,1.0024-53.126,432.27-54.582,433.65-0.6597,0.6236-60.824,34.089-133.7,74.369-72.875,40.279-135.31,74.795-138.75,76.702l-6.25,3.4675v-140.47zm0.0442-290.46,0.0442-75.75,2.1119,4c1.8472,3.4987,48.909,101.6,64.884,135.25l5.8153,12.25h-36.45-36.45l0.0442-75.75z"/>
  </g>
 </g>
</svg>
