<?xml version="1.0" encoding="UTF-8" standalone="no"?>
<!-- Created with Inkscape (http://www.inkscape.org/) -->
<svg id="svg2" xmlns:rdf="http://www.w3.org/1999/02/22-rdf-syntax-ns#" xmlns="http://www.w3.org/2000/svg" height="1200" width="1200" version="1.1" xmlns:cc="http://creativecommons.org/ns#" xmlns:dc="http://purl.org/dc/elements/1.1/">
 <metadata id="metadata7">
  <rdf:RDF>
   <cc:Work rdf:about="">
    <dc:format>image/svg+xml</dc:format>
    <dc:type rdf:resource="http://purl.org/dc/dcmitype/StillImage"/>
    <dc:title/>
   </cc:Work>
  </rdf:RDF>
 </metadata>
 <g id="layer1" transform="translate(14.285714,-46.647896)">
  <g id="g3066" transform="translate(1.4285715e-6,-17.142857)">
   <path id="path3080" fill="#c2c2c2" d="m338.67,1146.5c-37.705-4.8765-67.55-30.326-83.85-71.5-16.863-42.598-20.537-102.87-10.54-172.9,1.7358-12.16,7.5394-42.56,10.494-54.971,1.0438-4.3842,1.5699-8.2509,1.1691-8.5928-0.4008-0.34182-8.8287-3.2074-18.729-6.368-76.75-24.46-145.15-64.28-180.05-104.78-19.121-22.19-29.902-42.61-34.024-64.43-2.15-11.39-1.474-30.45,1.469-41.37,12.319-45.72,57.988-89.73,129.6-124.91,26.53-13.03,67.598-28.683,98-37.353,3.1273-0.89184,4.9262-1.9414,4.8031-2.8022-0.10831-0.757-1.8166-8.708-3.7961-17.669-18.749-84.87-19.024-161.06-0.77325-213.7,9.2473-26.671,25.166-49.368,43.075-61.416,37.734-25.386,93.165-22.197,156.79,9.0194,38.739,19.008,84.758,51.478,124.06,87.533l8.8749,8.1422,12.487-11.43c52.957-48.476,108.5-84.275,155.99-100.54,38.638-13.234,76.974-14.155,103.25-2.4785,8.8064,3.9133,22.991,14.098,29.858,21.44,6.635,7.0928,16.228,21.033,21.113,30.681,8.291,16.375,15.014,39.648,18.933,65.545,2.1454,14.175,2.3416,18.621,2.2947,52-0.0439,31.262-0.36681,39.083-2.2503,54.5-2.6965,22.072-6.1893,42.929-10.709,63.947-1.886,8.7708-3.311,16.065-3.1668,16.209,0.14424,0.14424,6.0931,2.0561,13.22,4.2487,104.84,32.254,183.33,83.885,210.7,138.6,14.131,28.248,14.405,59.119,0.7819,88.19-18.488,39.453-61.133,76.415-125.02,108.36-25.24,12.621-46.096,21.1-77.5,31.508-18.767,6.2196-18.999,6.3314-18.922,9.118,0.0428,1.5516,1.9363,11.821,4.2079,22.821,8.6059,41.673,11.745,75.106,10.91,116.19-0.63709,31.333-2.4045,46.906-7.8097,68.815-11.504,46.627-35.451,80.195-66.693,93.484-14.934,6.3525-21.68,7.48-44.694,7.4701-22.478-0.01-29.028-0.9243-50.093-6.9956-35.812-10.321-80.941-35.349-123.85-68.683-12.075-9.3814-41.593-34.917-46.998-40.657-1.6154-1.7155-3.4507-3.1191-4.0784-3.1191-0.62772,0-5.381,3.8862-10.563,8.636-51.663,47.355-108.85,83.845-156.42,99.806-29.375,9.8559-57.909,13.516-81.545,10.459zm488.54-51.085c9.3146-1.9573,16.846-6.311,23.667-13.682,14.486-15.654,24.25-42.862,28.398-79.134,2.0389-17.828,1.4872-64.224-0.99878-84-2.9053-23.112-10.047-61.691-12.517-67.612l-0.88085-2.1119-16.069,3.354c-34.036,7.1044-75.212,13.427-113.47,17.423-10.376,1.0839-19.243,2.2042-19.704,2.4895-0.46159,0.28528-6.7177,8.731-13.903,18.768-22.531,31.477-45.535,60.686-67.275,85.424-5.9139,6.7293-10.753,12.591-10.753,13.027,0,2.0621,24.459,24.162,44.269,39.998,60.479,48.35,122.01,73.876,159.23,66.056zm-452.43-0.4226c25.401-4.3295,55.769-16.814,87.849-36.116,24.918-14.993,47.677-32.302,76.323-58.045l11.746-10.556-3.2457-3.7523c-1.7851-2.0638-10.051-11.553-18.369-21.088-22.515-25.809-38.676-46.018-59.845-74.836-7.0703-9.625-13.277-17.779-13.792-18.12-0.51557-0.34114-5.2803-0.92742-10.588-1.3028-33.572-2.3744-84.296-9.6253-130.92-18.715-3.8606-0.75263-6.6159-0.86489-7.1705-0.29213-1.2374,1.278-7.3746,29.603-10.493,48.43-4.0841,24.655-5.646,40.883-6.2669,65.11-0.88391,34.491,2.0508,59.091,9.8532,82.594,9.1098,27.441,22.769,42.572,42.258,46.813,8.4267,1.8335,21.473,1.7845,32.663-0.1228zm214.51-145.1c16.179-17.957,59.426-71.498,59.426-73.57,0-0.46129-1.4625-0.51138-3.25-0.11132-1.7875,0.40007-29.912,0.75818-62.5,0.79581-32.588,0.0376-59.25,0.33436-59.25,0.6594,0,0.82492,24.103,30.837,35.151,43.768,10.67,12.489,27.216,31.152,27.647,31.185,0.16388,0.0126,1.4129-1.2146,2.7756-2.7271zm67.926-125.22c10.45-0.5594,21.402-1.2813,24.338-1.6042l5.3381-0.58707,9.2584-14.167c28.133-43.049,57.52-94.112,81.265-141.21l10.608-21.039-13.29-25.461c-26.39-50.54-61.24-109.85-83.72-142.46l-4.8254-7-18.99-1.3709c-26.779-1.9332-128.3-2.0802-159.82-0.23145l-23.831,1.3977-8.9448,13.365c-28.192,42.122-58.199,93.989-82.683,142.92l-10.047,20.078,11.502,22.422c26.338,51.345,48.735,89.967,79.108,136.42,5.7537,8.8,10.914,16.286,11.468,16.635,1.0951,0.69113,18.915,1.728,50.26,2.9244,24.758,0.94501,97.442,0.33378,123-1.0344zm-86-77.667c-35.11-5.533-62.657-25.55-78.018-56.693-10.703-21.7-13.052-48.103-6.4449-72.454,8.8788-32.725,35.786-59.761,69.462-69.796,12.029-3.5841,35.76-4.5575,48.446-1.987,24.537,4.9719,46.213,18.325,60.439,37.234,12.786,16.995,19.781,35.489,21.186,56.015,2.4665,36.034-14.655,70.955-44.544,90.853-17.991,11.977-32.222,16.448-54.027,16.975-7.425,0.17924-14.85,0.11315-16.5-0.14687zm-163.63,52.544c-17.258-27.768-34.53-57.655-46.705-80.818l-6.0001-11.415-1.5561,3.7242c-8.9146,21.336-32.609,86.436-32.609,89.593,0,2.5673,95.683,18.319,96.782,15.932,0.15526-0.33704-4.3053-7.9942-9.9123-17.016zm365.63,14.026c26.54-3.6953,75.815-12.911,77.375-14.471,1.557-1.557-31.22-88.203-34.672-91.655-0.43444-0.43444-4.1016,5.3946-8.1492,12.953-13.477,25.167-38.784,68.818-50.732,87.504-2.3774,3.7181-4.3225,7.1944-4.3225,7.725,0,0.53062,1.2375,0.7549,2.75,0.4984,1.5125-0.25651,9.5-1.4062,17.75-2.5549zm-496.47-43.68c11.488-34.717,31.044-84.918,43.863-112.6,2.2541-4.8673,4.0983-9.4443,4.0983-10.171,0-0.72685-2.4038-6.6445-5.3418-13.15-14.125-31.279-32.533-78.707-42.724-110.08-3.2899-10.128-5.7761-16.25-6.5988-16.25-2.069,0-40.398,12.713-52.728,17.489-48.598,18.824-86.615,40.879-112.82,65.454-20.198,18.939-31.785,38.999-31.785,55.028,0,29.174,33.252,66.497,86.5,97.091,15.128,8.6919,39.96,20.575,58.5,27.993,14.585,5.8359,49.111,17.796,51.667,17.898,0.6418,0.0255,3.9589-8.3911,7.3713-18.704zm639.53,11.649c25.644-8.1982,58.058-21.601,80.927-33.461,30.149-15.636,51.611-30.62,70.092-48.936,24.36-24.141,33.476-45.307,27.81-64.57-7.0138-23.847-34.35-51.902-73.123-75.048-15.965-9.5306-41.854-22.29-61.472-30.297-16.613-6.7805-58.208-20.863-60.288-20.412-0.96893,0.21021-4.1105,7.9236-8.889,21.825-12.606,36.674-23.796,65.12-38.939,98.996l-7.3742,16.496,3.9506,8.504c16.807,36.179,34.231,79.12,45.75,112.75,3.5865,10.472,6.7782,18.25,7.4885,18.25,0.68083,0,7.0103-1.8454,14.065-4.1009zm-540.27-233.9c11.629-20.775,32.035-55.091,37.866-63.68,3.4302-5.0522,3.5773-6.5197,0.58813-5.8656-1.2375,0.27078-7.425,1.2063-13.75,2.0788-26.978,3.7217-76.572,12.883-78.323,14.468-0.45253,0.40966-0.29481,2.7146,0.3505,5.122,2.9813,11.122,22.696,64.705,29.93,81.347l2.1604,4.9701,4.5713-8.4701c2.5142-4.6585,9.9871-18.145,16.606-29.97zm444.73,25.25c9.47-23.028,27.975-74.121,27.975-77.241,0-2.1183-86.583-17.686-93.576-16.825l-2.5656,0.31593,3.9186,6.0485c11.235,17.342,38.484,64.205,55.472,95.402,1.5123,2.7772,2.9258,5.0495,3.141,5.0495,0.21523,0,2.7508-5.7375,5.6347-12.75zm45.7-142.83c8.2113-37.991,11.353-64.173,11.992-99.923,0.83869-46.97-3.6669-74.139-16.791-101.25-8.5364-17.634-20.358-27.94-35.725-31.145-32.189-6.7126-89.051,15.499-143.78,56.164-7.6588,5.691-18.2,13.893-23.425,18.226-11.129,9.23-37,32.442-37,33.197,0,0.28608,3.7451,4.635,8.3225,9.6642,23.217,25.509,58.254,69.537,79.005,99.277l5.6744,8.1326,7.749,0.69967c31.692,2.8615,88.075,11.478,120.75,18.453,9.9,2.1133,18.45,3.7491,19,3.6352,0.55-0.11394,2.4514-6.9224,4.2254-15.13zm-539.66,11.028c34.513-7.0245,69.392-12.41,108.4-16.737l19.961-2.2143,7.9506-11c22.716-31.428,50.833-66.504,74.486-92.919l11.568-12.919-6.963-6.4286c-55.15-50.91-111.14-85.24-158.44-97.14-30.921-7.782-52.412-4.1737-66.635,11.188-6.7944,7.3382-14.85,23.201-18.902,37.222-10.941,37.858-10.937,93.639,0.01,153,4.184,22.687,8.6989,41.5,9.9596,41.5,0.63686,0,9.0041-1.597,18.594-3.5488zm319.94-24.566c-0.00008-2.0916-40.803-51.876-55.155-67.296l-6.4327-6.9112-11.53,12.911c-18.332,20.528-49.882,59.15-49.882,61.064,0.00001,0.46605,27.675,0.84736,61.5,0.84736s61.5-0.27681,61.5-0.61514z"/>
   <path id="path3078" fill="#a8a8a8" d="m344.54,1146.5c-1.8297-0.3548-6.5775-1.1388-10.551-1.7423-17.649-2.6808-35.795-11.81-49.65-24.98-10.382-9.8685-22.014-27.907-28.559-44.291-20.985-52.525-21.544-133.17-1.5389-221.83,2.4598-10.901,2.9875-14.784,2.123-15.617-0.63282-0.60998-7.4506-3.0454-15.151-5.412-58.5-18-114.45-46.18-153-77.1-31.283-25.08-51.571-51.46-60.794-79.06-7.849-23.47-5.886-50.89,5.326-74.38,26.989-56.55,106.61-108.46,216.22-140.98,6.2828-1.8637,8.75-3.0477,8.75-4.199,0-0.88189-1.5958-8.7488-3.5461-17.482-11.746-52.595-16.712-106.98-13.498-147.79,3.9243-49.83,15.592-85.097,36.472-110.24,29.272-35.246,79.101-43.22,140.07-22.414,48.8,16.652,105.35,53.008,159.17,102.32l8.9133,8.1675,11.459-10.552c65.527-60.342,133.14-99.902,187.65-109.79,12.357-2.2422,34.862-3.0158,45.677-1.5702,55.952,7.4787,89.457,55.611,97.658,140.29,1.3542,13.983,1.3437,57.008-0.0176,72.289-2.5973,29.155-6.6379,55.869-12.478,82.5-1.8696,8.525-3.0905,15.772-2.7131,16.105,0.37742,0.33268,10.136,3.6346,21.686,7.3377,56.58,18.14,107.96,43.308,145.15,71.103,14.172,10.591,36.564,32.727,44.663,44.152,7.9284,11.183,16,26.973,19.324,37.802,2.5584,8.3343,2.7659,10.294,2.8051,26.5,0.037,15.362-0.2389,18.478-2.2598,25.5-10.782,37.469-44.043,74.576-94.681,105.63-32.709,20.06-73.098,38.304-115.25,52.06-13.865,4.5247-19.25,6.7097-19.25,7.8107,0,0.84075,1.3612,7.5655,3.0249,14.944,5.4366,24.112,9.288,49.659,11.993,79.554,1.5573,17.211,1.2657,59.822-0.5235,76.5-8.2289,76.708-38.203,123.45-87.261,136.08-16.4,4.2218-41.311,4.1814-62.337-0.101-54.526-11.106-124.74-53.153-185.19-110.9-8.0826-7.7213-6.681-8.089-21.362,5.6041-59.253,55.265-131.96,96.438-186.84,105.81-11.2,1.9127-36.572,3.3503-41.673,2.3612zm28.673-50.33c25.267-4.1183,56.958-16.73,85.5-34.024,5.225-3.166,11.075-6.6969,13-7.8464,6.3453-3.7892,28.297-19.803,40.052-29.217,9.8127-7.859,20.029-16.651,36.771-31.643,3.8104-3.4123,4.3579-2.1591-5.823-13.328-10.05-11.026-28.492-32.766-41.429-48.839-11.757-14.607-38.872-50.45-43.007-56.851-2.0405-3.1587-1.6401-3.0773-26.064-5.3005-34.154-3.1089-69.327-8.135-106.23-15.18-10.576-2.019-19.495-3.4053-19.82-3.0806-0.84984,0.84984-6.1069,23.98-8.919,39.241-6.3351,34.382-8.0634,53.5-7.9589,88.043,0.0798,26.376,1.497,39.427,6.4081,59.011,5.368,21.406,13.057,36.451,23.929,46.821,12.567,11.987,30.216,16.002,53.59,12.192zm454.75-0.09c8.8705-2.2986,14.243-5.1193,20.307-10.661,14.639-13.379,25.612-39.695,30.971-74.274,2.0998-13.549,2.8822-55.863,1.396-75.5-1.9985-26.406-11.695-82.61-14.923-86.5-0.81667-0.98402-1.938-1.089-4.3024-0.40272-4.1335,1.1997-40.693,8.2506-56.198,10.839-15.416,2.5731-52.619,7.4911-72.445,9.577-8.4946,0.8937-16.248,2.0546-17.229,2.5798-0.98135,0.52521-3.6827,3.7566-6.003,7.181-18.184,26.836-51.683,69.762-76.057,97.461-5.9216,6.7296-10.766,12.65-10.766,13.156,0,1.1521,10.488,11.257,23.187,22.34,44.644,38.964,87.947,65.802,126.93,78.671,20.088,6.6309,42.291,8.859,55.129,5.5323zm-231.73-152.95c17.071-19.486,53.482-65.091,53.482-66.987,0-0.36456-11.138-0.31847-24.75,0.10242-30.052,0.92919-57.464,0.93968-82.568,0.0316-10.35-0.37438-19.23-0.42609-19.734-0.11492-2.028,1.2534,61.858,78.137,64.167,77.222,0.35349-0.14004,4.5849-4.7546,9.4032-10.255zm36.482-116.83c14.344-0.43452,21.067-0.73736,42.5-1.9143,4.4-0.24162,9.1397-0.91118,10.533-1.4879,1.7159-0.71047,6.4802-7.2001,14.774-20.124,27.831-43.37,54.922-90.456,76.621-133.18l11.928-23.482-12.824-24.49c-21.743-41.522-40.01-73.457-63.264-110.6-17.222-27.508-25.944-40.153-28.188-40.866-1.0888-0.34556-4.1393-0.62298-6.779-0.61648-2.6397,0.006-8.6244-0.22556-13.299-0.51566-31.74-1.9696-102.32-2.6158-136-1.2452-27.983,1.139-42.475,1.9307-44.078,2.408-2.777,0.82697-31.884,45.653-51.585,79.444-20.837,35.739-51.337,93.675-51.337,97.517,0,3.7016,31.753,63.554,52.041,98.094,15.891,27.054,47.816,76.933,50.34,78.649,0.61507,0.41834,3.8183,0.77161,7.1183,0.78505,3.3,0.0134,10.725,0.27557,16.5,0.58252s19.901,0.72921,31.39,0.93835c11.49,0.20914,21.165,0.66267,21.5,1.0078,0.57675,0.59345,38.153,0.11988,72.11-0.90878zm-67.302-81.19c-29.087-5.4984-55.606-24.872-69.072-50.459-7.0197-13.338-9.8572-21.977-11.715-35.668-1.6414-12.093-1.7992-15.519-0.91439-19.848,0.44969-2.2,1.3566-7.6,2.0153-12,5.3831-35.956,34.603-68.212,70.988-78.366,28.746-8.0217,61.138-2.8965,85.012,13.451,23.569,16.138,39.256,41.51,43.024,69.588,6.9285,51.616-24.501,98.632-74.861,111.98-10.276,2.7245-33.415,3.4114-44.477,1.3203zm-154.38,58.756c-17.784-28.544-41.864-70.463-51.689-89.982-2.0073-3.9875-3.9814-7.2486-4.387-7.2469-2.4681,0.0103-36.384,93.255-34.575,95.055,2.5227,2.51,95.319,17.805,98.522,16.239,0.37645-0.18406-3.1654-6.5138-7.8707-14.066zm357.69,11.23c29.006-3.9368,80.547-13.609,82.401-15.464,2.2252-2.2249-32.862-94.678-35.587-93.77-0.52769,0.17589-6.2673,10.036-12.755,21.912-13.505,24.722-30.395,53.949-43.087,74.557-4.8092,7.8087-8.5172,14.424-8.2402,14.701,0.27706,0.27706,1.6881,0.30575,3.1357,0.0638,1.4476-0.24199,7.8069-1.1424,14.132-2.0008zm-493.8-37.54c11.179-34.518,25.428-71.687,42.418-110.65,4.6088-10.569,8.3796-19.616,8.3796-20.104,0-0.48797-2.484-6.3585-5.5201-13.046-13.647-30.058-26.31-62.358-39.06-99.634-9.2336-26.994-9.2362-27-12.035-26.783-1.5397,0.11916-10.694,2.7468-20.342,5.8393-85.124,27.284-150.2,69.11-170.66,109.69-11.892,23.581-7.4261,41.451,18.098,72.424,5.1465,6.2452,22.31,21.092,35.023,30.295,21.245,15.38,52.022,31.907,83,44.571,15.392,6.2923,54.413,19.625,56,19.134,0.55-0.16999,2.6662-5.4538,4.7026-11.742zm645.88,3.2357c31.862-10.666,68.843-26.813,91.42-39.916,40.055-23.247,69.854-50.856,80.423-74.514,3.8195-8.5494,4.8994-13.938,4.5571-22.738-0.6167-15.855-9.4941-30.974-29.769-50.701-25.112-24.432-62.74-46.879-110.73-66.059-17.873-7.1425-53.591-19.24-56.806-19.24-1.3277,0-2.3638,1.8361-4.0915,7.25-9.8482,30.861-28.242,78.709-42.686,111.04-4.6169,10.334-8.3944,19.402-8.3944,20.15,0,0.74838,1.8468,5.343,4.104,10.21,19.083,41.149,37.134,86.421,48.485,121.6,2.0159,6.2476,3.2876,8.75,4.4468,8.75,0.89293,0,9.4627-2.6243,19.044-5.8317zm-97.06-213.21c13.814-34.514,26.727-71.671,25.331-72.892-2.619-2.2907-84.356-17.07-94.406-17.07-3.6045,0-3.6459,0.52089-0.41903,5.2697,8.2574,12.152,37.027,61.469,53.454,91.629,8.5268,15.656,6.6763,16.456,16.039-6.9367zm-456.95-1.71c12.751-23.526,31.05-55.092,43.399-74.858,4.5959-7.357,8.056-13.556,7.6893-13.776-2.3387-1.4024-94.845,14.729-97.037,16.922-1.6815,1.6815,31.562,92.463,33.859,92.463,0.46396,0,5.9042-9.3375,12.09-20.75zm-48.532-122.2c31.964-6.9587,77.869-14.218,115.35-18.241l21.401-2.297,3.6728-5.0065c32.474-44.266,51.266-67.758,79.931-99.919l11.509-12.913-6.9577-6.4741c-64.82-60.33-134.48-99-183.45-101.85-24.892-1.4495-41.983,8.3209-53.313,30.478-8.9193,17.442-15.952,46.568-16.823,69.672-1.3877,36.82,0.91277,68.435,7.6403,105,2.4679,13.414,8.0429,39.634,8.983,42.25,0.5926,1.6487,1.5219,1.5948,12.059-0.69912zm545.85,0.19912c3.6627-12.052,10.747-52.16,13.732-77.75,2.0307-17.405,1.69-72.072-0.5391-86.5-3.5158-22.756-9.7707-42.978-17.321-56-4.8014-8.2805-16.323-19.944-22.546-22.825-14.413-6.6712-31.472-6.7169-55.614-0.14916-40.497,11.017-93.505,43.169-139.51,84.62-5.4051,4.8699-11.238,9.9477-12.962,11.284-1.7242,1.3364-4.4165,3.9236-5.9829,5.7493l-2.8479,3.3195,8.3702,9.2507c16.329,18.047,29.648,33.895,46.433,55.251,8.1552,10.376,31.556,41.829,36.131,48.562l3.0993,4.562,12.331,1.2464c36.25,3.664,84.453,11.027,114.83,17.541,18.576,3.9832,21.668,4.237,22.397,1.8388zm-279.57-26.36c21.818,0.007,44.666,0.32223,50.773,0.70028,8.1263,0.50304,11.3,0.36935,11.837-0.49862,0.80313-1.2995-2.3796-5.7892-17.791-25.097-11.431-14.321-36.984-44.13-41.425-48.325l-2.9909-2.8254-9.7752,10.825c-21.653,23.979-53.83,63.915-52.817,65.553,0.42363,0.68546,4.3626,0.80333,11.581,0.34656,6.0166-0.38071,28.79-0.68638,50.609-0.67928z"/>
   <path id="path3076" fill="#828282" d="m339.21,1145.5c-38.293-5.5182-67.002-30.13-83.391-71.491-11.725-29.59-16.946-65.934-15.789-109.9,0.9638-36.622,5.0502-67.395,14.851-111.84,1.6785-7.6113,2.6642-14.178,2.1905-14.593-0.4737-0.41472-8.9613-3.34-18.861-6.5005-98.84-31.51-176.2-84.06-203.24-138.02-23.082-46.07-13.447-89.91,29.239-133.04,34.358-34.717,82.818-62.923,149-86.727,9.9-3.5607,23.85-8.1904,31-10.288,7.15-2.0978,13.348-4.1012,13.772-4.452,0.42485-0.35084-1.0252-8.7053-3.2224-18.565-16.834-75.543-19.366-141.87-7.3669-192.93,8.4762-36.063,24.422-64.065,45.602-80.083,8.5292-6.4502,22.262-12.905,34.215-16.083,8.9582-2.3813,11.823-2.6634,27.5-2.7073,19.745-0.0554,29.775,1.3661,49.42,7.0043,51.931,14.904,111.36,51.485,169.26,104.19,6.1484,5.5968,11.465,10.176,11.814,10.176,0.34923,0,7.9187-6.5868,16.821-14.637,79.614-71.996,157.89-110.96,217.1-108.06,27.408,1.3415,49.071,10.896,66.638,29.39,20.505,21.587,33.524,52.853,40.101,96.307,2.1417,14.151,2.3412,18.634,2.2912,51.5-0.0471,30.967-0.36359,38.447-2.2639,53.5-2.814,22.292-6.3399,43.208-10.722,63.603-1.9028,8.8566-3.4597,16.587-3.4597,17.179,0,0.59191,2.5875,1.821,5.75,2.7314,11.548,3.3242,31.086,9.8782,44.75,15.012,78.822,29.612,136.52,68.443,165.44,111.35,6.0723,9.007,13.539,25.15,16.249,35.13,1.9724,7.2641,2.2953,10.754,2.2209,24-0.078,13.87-0.3741,16.446-2.8164,24.494-7.0418,23.205-19.277,42.356-40.575,63.506-38.382,38.115-101.47,72.658-174.52,95.556-6.6,2.0688-12.56,4.2657-13.244,4.8819-0.91479,0.82426-0.98367,2.0265-0.26056,4.5478,2.1077,7.3492,8.1931,38.774,10.504,54.243,4.3417,29.063,5.7662,51.331,5.2308,81.771-0.51395,29.223-1.873,42.665-6.3696,63-12.9,58.336-40.113,93.042-82.16,104.78-9.0862,2.5369-10.968,2.707-29.701,2.6829-21.382-0.027-28.45-1.0381-49.091-7.0195-38.05-11.026-84.766-37.279-128.41-72.16-12.73-10.174-38.116-32.47-43.437-38.151-1.6154-1.7243-3.4327-3.1351-4.0384-3.1351-0.60573,0-5.809,4.3266-11.563,9.6147-76.977,70.745-158.02,111.82-219.46,111.24-6.05-0.057-13.7-0.4927-17-0.9682zm489-49.079c21.577-4.6,37.526-25.624,46.511-61.312,9.425-37.435,9.574-91.981,0.39708-145.41-3.1276-18.209-7.9672-40.052-9.132-41.216-0.52109-0.52109-6.8852,0.38031-15.333,2.1718-34.105,7.232-77.654,13.987-115.44,17.907-23.099,2.3959-19.137,0.0809-32.598,19.046-20.195,28.45-44.474,59.438-65.321,83.368-6.6446,7.6274-12.93,14.973-13.968,16.323l-1.8866,2.455,4.3866,4.5109c7.0903,7.2913,25.358,23.259,39.998,34.962,62.75,50.163,123.79,75.421,162.39,67.193zm-445.22-1.7214c40.886-9.3867,91.963-37.699,138.72-76.897,12.642-10.597,30-26.649,30-27.742,0-0.60954-3.8683-5.348-8.5963-10.53-21.299-23.344-50.115-58.819-74.666-91.922-12.014-16.199-12.311-16.505-16.238-16.777-34.841-2.4167-97.087-11.136-133.5-18.7-8.8512-1.8388-11.771-2.1164-12.675-1.2056-2.5978,2.6156-11.737,50.343-14.875,77.683-2.1948,19.12-2.9886,56.537-1.5449,72.812,4.9576,55.887,22.484,88.139,51.497,94.769,8.4735,1.9362,30.339,1.158,41.874-1.4902zm219.12-157.55c19.31-22.465,48.601-59.65,48.601-61.7,0-0.63643-2.2594-0.72432-6.25-0.24313-3.4375,0.4145-32.462,0.76619-64.5,0.78152-32.038,0.0153-58.25,0.41009-58.25,0.87724,0,2.1088,40.614,51.423,58.425,70.941l6.0751,6.6573,2.3622-2.1573c1.2992-1.1865,7.3907-8.0073,13.537-15.157zm30.101-110.54c15.95-0.56526,34.836-1.4362,41.968-1.9354,15.028-1.0518,12.095,1.1679,25.11-19.006,17.968-27.852,36.983-59.548,53.64-89.411,13.286-23.819,35.782-67.829,35.782-70.001,0-1.9519-20.849-42.193-34.251-66.11-29.219-52.141-65.022-109.11-69.116-109.97-18.856-3.9751-183.44-3.9862-201.13-0.0136-3.2971,0.74048-32.395,45.954-55.979,86.984-15.231,26.496-27.852,49.956-39.598,73.601l-8.2467,16.601,12.794,24.899c25.675,49.968,51.362,93.924,79.847,136.63l10.182,15.267,12,0.77579c38.969,2.5193,94.308,3.2013,137,1.6883zm-64.05-81.425c-16.604-3.0163-30.328-8.8585-43.064-18.332-56.039-41.684-54.239-124.98,3.5561-164.59,7.5615-5.1821,17.949-10.006,28.559-13.263,8.4477-2.5934,10.135-2.763,27.5-2.763,17.312,0,19.078,0.176,27.5,2.7413,27.959,8.5161,49.997,26.89,62.518,52.121,20.087,40.481,11.262,88.087-22.034,118.86-22.56,20.853-55.111,30.563-84.534,25.219zm-148.45,72.562c0-0.49441-4.5776-8.2569-10.173-17.25-17.869-28.723-42.025-70.922-50.431-88.101-1.5474-3.1625-3.3887-5.75-4.0917-5.75-1.4809,0-1.5636,0.18812-12.668,28.809-9.3309,24.049-22.637,62.361-22.637,65.178,0,1.4372,1.5013,2.1417,7.25,3.4021,18.61,4.0803,59.277,10.724,77.75,12.702,5.775,0.61828,10.688,1.3009,10.917,1.5169,0.82433,0.77702,4.0833,0.37302,4.0833-0.50619zm354.16-3.0958c32.942-4.7656,76.24-13.001,78.093-14.854,2.1221-2.1221-33.877-95.775-36.481-94.907-0.55172,0.18391-5.1298,7.9667-10.173,17.295-15.768,29.163-38.087,67.664-50.272,86.721-4.548,7.1129-5.1209,8.7418-3.0725,8.7365,0.6875-0.002,10.545-1.3479,21.906-2.9914zm-495.59-45.24c11.602-34.918,25.824-71.641,41.053-106l7.4244-16.751-1.9046-3.7487c-10.96-21.58-37.48-89.41-48.68-124.5-3.3803-10.595-3.9792-11.75-6.0945-11.75-3.2752,0-40.006,12.107-56.861,18.742-57.861,22.777-103.79,52.612-125.65,81.613-17.815,23.643-20.386,42.434-8.8276,64.541,18.331,35.062,69.758,72.708,135.52,99.201,16.036,6.4605,52.192,18.842,55.126,18.877,1.9343,0.0231,2.889-2.1476,8.8951-20.224zm641.12,12.39c24.784-8.1527,43.556-15.734,66.314-26.781,21.658-10.513,30.509-15.455,46-25.682,28.909-19.086,50.015-40.085,59.978-59.677,12.807-25.185,5.5625-48.808-23.623-77.03-23.459-22.684-56.001-42.713-99.985-61.54-20.481-8.7663-68.155-25.046-69.476-23.725-0.48998,0.48998-4.2126,10.544-8.2725,22.343-12.717,36.956-22.558,62.021-38.056,96.918l-8.637,19.449,7.981,17.542c16.888,37.12,31.115,72.564,42.505,105.89,5.4602,15.977,6.3088,18.152,7.0797,18.152,0.20753,0,8.3935-2.6369,18.191-5.8598zm-555.07-210.39c15.324-28.478,38.416-68.024,53.403-91.455,0.77553-1.2125,1.1337-2.4809,0.79594-2.8186-1.9003-1.9003-94.584,14.166-97.535,16.907-0.95676,0.88856,0.38204,5.847,6.1094,22.627,11.302,33.114,26.075,70.989,27.687,70.989,0.43728,0,4.73-7.3125,9.5394-16.25zm455.26,7.9883c13.164-32.168,31.728-84.276,30.317-85.097-1.1548-0.67221-18.82-4.4703-35.188-7.5658-12.815-2.4235-29.877-5.1683-60.25-9.6924-2.0625-0.30722-3.75-0.1388-3.75,0.37428,0,0.51307,1.717,3.5901,3.8155,6.8379,11.83,18.309,41.46,69.317,55.274,95.154,2.4257,4.537,4.8603,8.2442,5.4103,8.2383,0.55-0.006,2.5171-3.7179,4.3714-8.249zm-489.82-137.69c33.944-6.8805,67.987-12.128,105.3-16.233l20.856-2.2938,7.5444-10.511c23.972-33.4,61.684-79.826,82.681-101.79l5.0426-5.2739-7.4894-7.0643c-33.57-31.69-74.8-61.27-110.11-79.03-44.53-22.4-82.2-28.58-104.91-17.22-17.022,8.5156-30.121,32.867-35.959,66.848-5.9407,34.577-4.8772,79.082,3.0159,126.21,2.7288,16.293,9.5848,48.853,10.649,50.576,0.27139,0.43911,1.266,0.55319,2.2102,0.2535,0.94423-0.29968,10.469-2.3189,21.166-4.4872zm537.67-10.55c8.7015-40.467,12.337-72.582,12.35-109.09,0.0258-73.002-19.038-118.18-52.875-125.29-31.856-6.7002-84.659,12.784-138.7,51.181-25.407,18.051-67.5,53.883-67.5,57.459,0,0.79153,3.9731,5.7832,8.8291,11.093,23.037,25.188,59.39,70.802,79.137,99.298l5.2977,7.6448,7.6183,0.67472c30.684,2.7176,88.43,11.563,120.62,18.477,9.9,2.1264,18.9,3.7969,20,3.7124,1.7457-0.13418,2.4101-2.0609,5.2254-15.154zm-218.73-13.83c0-3.8594-60.283-75.674-63.522-75.674-2.2947,0-35.214,38.009-54.658,63.107-5.126,6.617-9.4326,12.337-9.5701,12.712-0.1375,0.37444,28.55,0.6808,63.75,0.6808s64-0.37168,64-0.82596z"/>
   <path id="path3074" fill="#757575" d="m340.67,1145.6c-15.39-2.1232-35.469-10.13-46.52-18.552-25.637-19.537-43.07-53.993-50.459-99.732-2.7116-16.786-3.4132-27.71-3.4149-53.173-0.002-26.569,0.98276-41.027,4.5288-66.5,2.1938-15.76,7.8865-45.932,10.975-58.167,3.2662-12.941,4.5731-11.486-16.321-18.166-46.45-14.82-92.97-36.51-127.75-59.53-11.47-7.59-28.676-20.78-34.645-26.56-1.7318-1.6768-4.6568-4.4596-6.5-6.1839-19.758-18.484-34.114-39.604-42.181-62.053-13.85-38.545-0.8959-80.011,36.82-117.86,12.744-12.788,23.115-21.06,42.51-33.904,26.537-17.575,51.69-30.471,85.532-43.853,16.378-6.4762,46.259-16.794,60.322-20.828,2.3948-0.68704,4.5451-1.7468,4.7785-2.3551,0.23342-0.60827-1.4084-9.3126-3.6485-19.343-6.0565-27.119-12.197-66.158-12.846-81.672-0.046-1.1-0.40269-6.725-0.79255-12.5-3.632-53.8,3.5516-102.33,20.204-136.5,8.7684-17.991,21.603-34.169,33.511-42.243,13.996-9.4896,31.542-15.675,49.691-17.518,41.417-4.2054,99.071,15.974,157.75,55.215,21.438,14.337,54.147,39.967,69,54.069,2.2,2.0887,6.22,5.8046,8.9334,8.2576l4.9334,4.4599,6.0666-5.2362c3.3366-2.8799,8.5416-7.6201,11.567-10.534,7.5326-7.2553,32.389-27.897,44.295-36.784,45.769-34.163,88.924-56.314,128.92-66.172,14.783-3.6435,22.862-4.5399,39.785-4.4138,21.468,0.16,37.976,5.1199,55.049,16.54,28.088,18.788,47.57,57.643,54.833,109.36,2.3175,16.502,2.2327,14.677,2.2766,49,0.0433,33.896,0.0608,33.471-2.2426,54.5-2.2495,20.538-5.65,41.219-10.458,63.603-3.8453,17.903-3.9996,19.29-2.2086,19.853,0.6875,0.21603,8,2.4978,16.25,5.0707,57.148,17.822,111.48,44.204,149.49,72.585,14.934,11.152,36.092,32.092,44.901,44.438,7.9916,11.2,17.322,30.302,20.246,41.451,1.8431,7.026,2.2145,11.014,2.142,23-0.076,12.593-0.4361,15.684-2.7373,23.5-3.4988,11.885-10.949,27.342-18.477,38.332-5.7925,8.4572-25.339,31.156-26.849,31.179-0.3916,0.006-2.962,2.0901-5.712,4.6317-33.751,31.193-99.162,65.254-165,85.919-6.6,2.0716-12.368,4.0837-12.819,4.4714-0.45028,0.38767,0.75635,7.8514,2.6814,16.586,5.3638,24.337,11.14,60.456,11.496,71.881,0.0342,1.1,0.37105,5.6,0.74847,10,0.53771,6.2687,0.78372,56.352,0.32419,66-1.2505,26.256-9.5618,60.074-20.43,83.127-15.796,33.507-36.819,52.432-67.708,60.952-11.801,3.2549-35.791,4.1117-50.794,1.8141-42.158-6.4563-93.081-30.769-142.93-68.242-19.081-14.343-40.405-32.47-52.815-44.896-3.4357-3.4402-6.8806-6.255-7.6554-6.255-1.5521,0-7.08,4.3924-13.25,10.528-25.886,25.743-70.491,57.949-108.35,78.232-28.646,15.347-65.533,28.102-89,30.774-9.8265,1.119-29.34,1.3479-36.045,0.4229zm35.545-49.462c45.869-7.8113,101.95-39.386,158.05-88.988,6.0216-5.3239,12.688-11.198,14.814-13.053l3.8656-3.3733-3.3656-4.2574c-1.8511-2.3416-5.1656-6.076-7.3656-8.2986-15.358-15.516-69.839-83.674-82.883-103.69-0.95555-1.4663-2.4979-2.967-3.4274-3.3349-1.4068-0.55677-11.57-1.5262-17.19-1.6397-0.825-0.0167-5.325-0.49285-10-1.0582s-9.175-1.0272-10-1.0262c-8.4342,0.009-65.413-8.6673-94.271-14.356-9.9001-1.9514-18.353-3.1815-18.785-2.7336-1.0215,1.0599-7.2616,29.438-9.8543,44.814-5.4285,32.194-7.0632,50.358-7.1547,79.5-0.16752,53.367,10.266,90.78,30.71,110.12,7.2327,6.8439,12.365,9.5678,21.694,11.513,3.914,0.8161,7.2011,1.569,7.3046,1.6731,0.79244,0.7971,19.781-0.4409,27.857-1.8163zm453.5,0.2766c8.3801-1.9925,13.404-5.0356,21-12.72,21.065-21.309,31.17-59.005,31.11-116.05-0.0264-25.076-0.2116-29.143-2.1179-46.5-2.4582-22.382-10.829-69.001-13.029-72.56-0.55499-0.89798-6.4763-0.046-23.602,3.3958-37.958,7.6286-71.032,12.675-109.21,16.664-10.539,1.1011-18.995,2.4543-19.869,3.1794-0.83661,0.69432-3.7111,4.4255-6.3877,8.2916-20.696,29.892-51.225,69.103-73.802,94.789-6.6519,7.5679-12.094,14.224-12.094,14.791,0,2.0061,24.028,23.757,43.985,39.817,48.768,39.244,98.836,64.23,136.52,68.126,8.9232,0.9226,20.677,0.4003,27.5-1.222zm-237.86-147.02c19.669-22.155,58.852-70.954,58.852-73.294,0-0.77676-7.1762-0.93998-24.75-0.56293-27.977,0.60023-56.513,0.60738-85.5,0.0214-10.863-0.21958-19.75-0.0489-19.75,0.3794,0.00017,2.7654,63.665,78.766,65.932,78.706,0.31247-0.008,2.6596-2.3707,5.2158-5.25zm37.352-122.32c7.15-0.18778,17.725-0.60089,23.5-0.91801,5.775-0.31713,14.325-0.73127,19-0.9203,10.875-0.43976,15.515-1.3581,17.287-3.422,3.439-4.0035,31.795-49.328,46.875-74.927,21.022-35.685,53.094-96.442,53.08-100.55-0.013-3.7277-27.101-54.678-50.065-94.169-17.688-30.418-49.406-80.287-52.138-81.975-0.56534-0.3494-4.968-0.81669-9.7838-1.0384-4.8157-0.22174-12.806-0.64339-17.756-0.93702-37.013-2.1955-113.26-2.1876-150.5,0.0157-7.8497,0.46437-18.777,1.0708-24.735,1.3726-2.5772,0.13057-36.618,53.321-57.959,90.563-19.798,34.549-45.306,83.617-45.306,87.152,0,3.7113,32.915,65.487,53.265,99.967,18.658,31.615,48.245,77.35,50.091,77.43,6.3535,0.27454,20.226,0.97635,29.144,1.4744,6.05,0.33789,16.175,0.58167,22.5,0.54173,6.325-0.0399,14.875,0.34321,19,0.85142,6.5779,0.81041,30.591,0.64738,74.5-0.5058zm-60.05-81.804c-24.796-4.7456-46.752-17.196-61.389-34.811-8.1882-9.8543-17.367-28.226-20.633-41.296-5.6061-22.437-3.0392-45.307,7.5203-67,13.935-28.628,39.96-48.614,71.552-54.948,12.361-2.4785,33.285-1.6096,44.9,1.8647,17.899,5.3535,32.891,13.987,44.639,25.707,20.793,20.743,32.693,54.34,29.001,81.876-5.7673,43.013-34.701,76.039-75.921,86.66-11.923,3.0724-29.326,3.9265-39.669,1.947zm-149.21,72.82c0.31026-0.31026-3.9674-7.8478-9.5058-16.75-16.399-26.358-32.519-54.345-48.451-84.115-3.217-6.0111-6.3755-11.105-7.0189-11.319-1.3485-0.4495-1.4304-0.26442-12.632,28.557-10.982,28.256-23.844,66.37-22.763,67.451,2.1936,2.1936,49.942,10.692,85.14,15.153,12.84,1.6274,14.514,1.7398,15.231,1.0229zm352.04-3.0015c24.664-3.4788,60.269-9.8124,78.477-13.96,1.2375-0.28188,2.25-1.1744,2.25-1.9833,0-5.8064-34.771-95.491-37.022-95.491-0.45703,0-4.5332,6.8625-9.0582,15.25-16.766,31.077-40.138,71.524-52.528,90.902-2.3394,3.6588-3.9845,6.9213-3.6558,7.25,0.89553,0.89553,1.8581,0.80757,21.537-1.9681zm-493.25-45.93c10.923-33.126,25.41-70.503,40.697-104.99,6.4462-14.544,7.384-17.355,6.506-19.5-0.56425-1.3784-4.4981-10.381-8.742-20.006-14.9-33.77-31.15-76.26-41.05-107.3l-3.7628-11.794-3.0894,0.6542c-6.2945,1.3329-43.542,13.843-56.989,19.141-47.396,18.672-83.877,40.329-109.88,65.228-25.792,24.7-34.999,46.229-29.234,68.362,4.0587,15.582,19.237,36.147,38.841,52.624,35.688,29.996,79.827,53.276,136.67,72.084,20.738,6.8616,21.176,6.9696,22.63,5.5771,0.62164-0.5952,3.9494-9.6322,7.395-20.082zm641.66,12.64c24.404-8.0276,43.445-15.69,65.314-26.284,30.589-14.818,48.733-26.161,70.876-44.311,10.122-8.2962,15.418-13.629,23.176-23.334,14.254-17.832,18.461-28.283,17.719-44.017-0.5301-11.238-2.5662-17.4-9.1929-27.821-4.2301-6.6521-23.38-27.968-28.684-31.928-1.4334-1.0702-7.4772-5.6316-13.431-10.136-20.701-15.663-52.468-33.017-83.887-45.825-16.377-6.6763-61.049-21.749-63.121-21.297-0.88493,0.19296-4.2634,8.5441-8.8244,21.813-12.678,36.881-22.54,62.007-38.029,96.887-4.731,10.654-8.6018,19.91-8.6018,20.571,0,0.66034,3.1867,8.14,7.0816,16.621,16.258,35.404,31.963,74.497,43.456,108.17,3.4896,10.224,6.2268,16.75,7.0258,16.75,0.71994,0,9.3251-2.6369,19.123-5.8598zm-553.14-214.89c13.124-24.264,31.265-55.589,43.963-75.916,6.0746-9.7241,8.0114-13.579,7.0141-13.962-2.7414-1.052-63.349,8.7128-89.465,14.414-4.6409,1.0132-8.6064,2.347-8.812,2.9641-1.1334,3.4001,32.379,94.25,34.767,94.25,0.42308,0,6.0633-9.7875,12.534-21.75zm454.47,8.0112c9.5504-23.223,28.979-77.031,28.979-80.258,0-1.3987-38.637-9.0391-70-13.842-28.684-4.3929-30-4.5317-30-3.1633,0,0.65175,2.8627,5.7565,6.3615,11.344,14.397,22.991,31.444,52.288,46.641,80.159,10.1,18.523,10.849,19.709,11.997,19,0.42522-0.26281,3.1347-6.2204,6.0211-13.239zm-500.54-131.24c18.698-3.9701,48.775-9.4019,66.027-11.924,14.263-2.0854,43.781-5.8341,46.5-5.9054,0.825-0.0216,5.325-0.52023,10-1.108,4.675-0.58778,9.2729-1.0721,10.218-1.0763,0.94468-0.004,3.4531-2.3701,5.5742-5.2576,26.781-36.456,43.01-57.214,63.137-80.75,11.131-13.016,13.122-15.277,23.555-26.739l4.7686-5.2387-3.3762-3.8168c-1.8569-2.0992-4.7829-4.9168-6.5021-6.2613s-7.7942-6.5467-13.5-11.56c-70.131-61.626-143.44-95.224-187.65-85.999-9.8768,2.061-16.269,5.7853-23.694,13.805-12.707,13.724-20.905,35.285-25.025,65.81-3.3056,24.493-3.5785,44.647-1.0495,77.5,1.3384,17.387,7.0312,52.614,12.12,75,1.3754,6.05,2.7646,12.238,3.0872,13.75,0.3226,1.5125,0.85544,2.75,1.1841,2.75,0.32865,0,6.9099-1.3403,14.625-2.9784zm543.01,2.0089c0.9251-1.4968,7.2799-32.565,9.465-46.273,5.1199-32.121,6.0322-43.554,6.1248-76.757,0.16013-57.41-10.094-94.761-31.517-114.8-9.8888-9.2505-17.672-12.002-34.654-12.252-43.901-0.64539-110.14,33.65-171.32,88.698-5.4119,4.8699-11.542,10.204-13.623,11.854-3.7931,3.008-8.9622,8.7325-8.9622,9.9252,0,0.35004,2.1375,2.7949,4.75,5.4331,19.132,19.32,55.666,64.625,82.053,101.75l7.1855,10.11,5.2556,0.71518c2.8906,0.39335,5.9306,0.71804,6.7556,0.72153,0.825,0.003,12.3,1.3241,25.5,2.9347,28.519,3.4798,65.099,9.5083,90,14.832,19.755,4.2236,22.095,4.5401,22.981,3.1068zm-284.99-27.63c23.1-0.18619,45.375,0.068,49.5,0.56487,8.4389,1.0165,20,0.28642,20-1.263,0-3.0389-40.653-52.938-58.258-71.508l-5.0306-5.3065-3.5714,3.3065c-1.9643,1.8186-4.2525,4.2065-5.085,5.3065-0.83251,1.1-3.1804,3.8-5.2175,6-11.313,12.218-50.838,60.81-50.838,62.501,0,1.1067,8.2987,1.892,13,1.2302,1.925-0.27096,22.4-0.64501,45.5-0.83121z"/>
   <path id="path3072" fill="#646464" d="m347.29,1145.9c-0.14145-0.142-3.9636-0.7229-8.4937-1.2909-22.062-2.7664-40.439-12.175-56.379-28.864-21.346-22.351-33.228-51.57-39.276-96.586-1.9991-14.879-2.3626-21.605-2.4317-45-0.10849-36.732,4.6878-76.582,14.503-120.49,1.7835-7.9793,3.0423-15.034,2.7974-15.676-0.24497-0.64251-6.3739-3.0184-13.62-5.2798-93.81-29.23-166.72-75.05-201.36-126.5-9.009-13.38-16.326-31.51-18.377-45.53-1.817-12.43-0.717-30.35,2.548-41.47,14.844-50.57,75.273-101.31,162.51-136.46,14.611-5.8862,38.71-14.31,54.876-19.182,7.4931-2.2582,13.907-4.5515,14.253-5.0962,0.34619-0.54469,0.0129-3.3016-0.7407-6.1264-5.2177-19.559-12.052-59.524-14.9-87.136-7.5256-72.954,1.9349-134.47,26.381-171.54,19.774-29.988,48.29-45.027,85.63-45.16,8.8091-0.0314,11.778,0.23657,26,2.3459,54.636,8.1038,124.86,48.096,191.69,109.17,6.4302,5.8763,11.971,10.684,12.312,10.684,0.34157,0,7.4599-6.1875,15.819-13.75,19.856-17.965,24.46-21.864,41.178-34.871,51.921-40.398,103.88-66.034,146.74-72.393,27.499-4.0807,52.986-1.4465,70.26,7.2617,8.0196,4.0428,18.596,12.131,26.009,19.89,23.344,24.434,36.25,58.783,41.466,110.36,1.1089,10.965,1.4606,54.705,0.54667,68-1.6971,24.69-7.3368,62.231-13.504,89.892-2.2654,10.16-2.6521,13.361-1.72,14.235,0.66134,0.6201,8.6274,3.4692,17.702,6.3314,73.552,23.198,132.64,54.816,170.56,91.266,30.628,29.444,43.859,54.046,45.171,83.993,0.8419,19.209-2.1732,33.69-10.453,50.201-15.823,31.554-50.83,64.508-96.774,91.1-30.467,17.634-74.53,36.646-111.36,48.049-6.7964,2.1043-12.589,4.4302-12.872,5.1686-0.28334,0.73837,1.0977,8.8622,3.0689,18.053,5.7956,27.021,8.4743,44.112,10.612,67.71,0.59796,6.6,1.3288,14.025,1.6242,16.5,1.1437,9.5838,0.46895,55.712-1.0131,69.261-6.6651,60.932-24.831,99.563-57.924,123.18-21.228,15.148-55.07,19.788-91.019,12.48-53.656-10.908-120.17-50.751-182.3-109.2-7.5531-7.1055-9.6673-8.6023-11.081-7.8454-0.96116,0.5144-6.0199,4.8759-11.242,9.6922-52.208,48.155-107,83.054-156.21,99.507-15.238,5.0938-25.551,7.5418-39.908,9.4734-9.8565,1.326-30.549,2.4466-31.298,1.6949zm23.902-48.302c10.521-1.4633,30.714-7.1301,42.865-12.029,41.632-16.785,87.396-47.294,130.64-87.09l8.344-7.6792-1.8234-2.7829c-1.0029-1.5306-4.5775-5.725-7.9436-9.3208-17.819-19.035-51.592-60.566-74.31-91.381-8.3181-11.282-12.976-16.757-14.5-17.045-1.2351-0.23315-10.571-1.16-20.746-2.0597-34.821-3.0789-70.167-8.0846-107.76-15.261-13.477-2.5728-19.573-3.3605-20.31-2.624-3.421,3.421-14.771,66.126-16.542,91.389-4.2,59.91,2.6169,103.84,20.511,132.17,12.467,19.74,33.077,27.677,61.574,23.714zm460.27-1.4191c15.015-4.7432,24.338-13.86,33.767-33.021,7.8286-15.909,14.479-41.683,16.255-63,0.53317-6.3988,0.74947-51.852,0.29741-62.5-1.0228-24.092-12.057-86.874-15.768-89.718-0.8743-0.66988-1.8923-1.0309-2.2622-0.80233-1.0264,0.63434-33.703,7.1308-50.033,9.947-24.553,4.2345-54.309,8.2869-81.5,11.099-8.25,0.85334-15.702,1.7622-16.56,2.0197-0.8578,0.25749-7.3828,8.6169-14.5,18.576-21.53,30.129-47.853,63.34-71.19,89.823-5.0875,5.773-9.25,10.803-9.25,11.178,0,1.1606,18.866,18.629,32,29.629,59.743,50.037,117.05,78.51,159.19,79.091,9.962,0.1374,12.855-0.2062,19.552-2.3217zm-236.56-149.8c14.919-16.702,30.042-35.209,47.743-58.427,8.6372-11.329,10.36-15.163,6.2414-13.889-5.1614,1.5965-73.382,2.3588-108.42,1.2115-16.429-0.53802-19.75-0.41495-19.75,0.7319,0,3.6882,62.405,78.35,65.656,78.551,0.63581,0.0393,4.4722-3.6411,8.5254-8.1786zm37.319-119.13c8.8-0.24492,20.5-0.71267,26-1.0394,5.5-0.32676,12.211-0.56307,14.914-0.52513,6.9094,0.097,14.038-1.8169,16.301-4.3766,4.0293-4.5569,31.773-49.014,48.718-78.067,13.57-23.267,27.553-49.049,40.749-75.132l11.142-22.024-13.298-25.476c-22.35-42.82-46.85-85.34-69.69-120.97-20.684-32.261-19.693-31.198-28.933-31.03-2.6945,0.0489-8.9492-0.18672-13.899-0.52363-37.996-2.5861-118.96-2.5975-160-0.0225-4.95,0.31059-11.126,0.54556-13.725,0.52216s-5.6406,0.44724-6.7592,1.0458c-3.6778,1.9683-32.429,46.494-53.133,82.285-20.907,36.142-49.883,91.546-49.883,95.38,0,1.8638,19.28,39.728,32.4,63.633,25.172,45.862,67.054,112.77,71.467,114.17,1.1432,0.36283,4.4531,0.6339,7.3554,0.60239,2.9023-0.0315,10.002,0.19797,15.777,0.50995s19.879,0.72774,31.342,0.92391c11.463,0.19616,21.138,0.65827,21.5,1.0269,0.60019,0.61146,30.948,0.2283,71.658-0.90471zm-59.54-81.95c-26.201-4.8454-40.251-11.492-56.302-26.633-15.515-14.636-26.305-33.848-29.508-52.541-3.1631-18.46-3.3678-20.781-2.3262-26.367,0.57763-3.098,1.5817-9.0078,2.2312-13.133,3.7689-23.936,18.503-46.645,40.942-63.1,24.777-18.17,63.199-22.631,93.716-10.88,42.34,16.304,69.134,62.247,62.363,106.93-3.6331,23.977-11.676,39.813-29.003,57.103-15.5,15.468-31.482,23.87-52.263,27.477-10.688,1.8553-23.368,2.3402-29.85,1.1415zm-152.46,73.324c0.34031-0.55064-4.7521-9.6631-11.317-20.25-15.653-25.245-27.146-44.965-39.776-68.249-5.6683-10.45-11.005-20.275-11.858-21.833-0.85377-1.5581-2.0554-2.6653-2.6702-2.4603-2.0688,0.6896-18.549,42.969-29.789,76.423-3.3501,9.9712-6.0912,18.612-6.0912,19.203,0,1.4832,4.6011,2.6554,26,6.6234,24.176,4.483,55.053,9.2627,73.691,11.407,0.65504,0.0754,1.4694-0.31348,1.8097-0.86412zm341.5-1.5172c8.2356-0.93471,40.723-6.1585,55.5-8.924,26.346-4.9307,34.688-6.8844,35.211-8.2458,1.5929-4.1511-34.122-97.008-36.949-96.066-0.54328,0.18109-4.1156,6.1623-7.9384,13.292-14.315,26.697-31.695,56.864-48.527,84.231-5.165,8.3979-9.1018,15.737-8.7484,16.309,0.35336,0.57176,1.8371,0.81203,3.2973,0.53394,1.4601-0.2781,5.1298-0.78653,8.1548-1.1299zm-483.53-45.982c10.678-32.36,24.983-69.523,39.984-103.87,4.6991-10.759,8.5438-19.931,8.5438-20.382,0-0.45056-3.3107-8.228-7.3571-17.283-13.65-30.55-29.58-72.02-41.61-108.3l-5.2518-15.84-3.3959,0.63709c-7.1256,1.3368-41.613,13.074-58.866,20.034-41.564,16.768-72.94,34.381-98.012,55.02-16.902,13.914-27.24,26.08-34.624,40.745-9.3129,18.498-9.0096,31.068,1.2244,50.744,18.056,34.714,67.402,70.634,135.4,98.558,15.609,6.4098,54.253,19.568,56.351,19.187,0.79916-0.14498,3.9132-8.0091,7.6206-19.245zm641.81,11c75.199-24.826,138.66-63.026,163.63-98.5,10.817-15.368,15.05-26.881,14.578-39.655-0.3148-8.5261-1.4563-12.388-6.605-22.345-18.108-35.017-71.092-71.698-143.09-99.059-18.132-6.8906-46.812-16.084-49.09-15.736-1.5644,0.23892-3.4058,4.5939-9.6389,22.795-12.169,35.535-24.625,67.202-39.457,100.31-3.6303,8.104-6.6005,15.354-6.6005,16.111,0,0.75709,1.8436,5.3588,4.0969,10.226,18.513,39.99,36.183,84.104,47.404,118.35,2.0725,6.325,3.9592,11.838,4.1926,12.25,0.82103,1.4507,4.0744,0.69991,20.584-4.7505zm-558.71-204.24c14.764-27.696,35.751-63.948,52.07-89.944,3.7545-5.981,6.2042-10.857,5.7054-11.356-2.1436-2.1436-95.735,14.034-98.775,17.074-1.5474,1.5474,11.394,39.926,24.608,72.976,3.8482,9.625,7.3951,18.512,7.8819,19.75,0.48682,1.2375,1.3113,2.25,1.8322,2.25,0.52088,0,3.5259-4.8375,6.6778-10.75zm463.2-9.5c11.114-27.689,26.222-69.951,26.222-73.354,0-0.72549-1.7167-1.7813-3.8149-2.3463-12.511-3.3688-58.235-11.465-92.917-16.453-1.7774-0.25562-3.4518-0.10862-3.7208,0.32667-0.26903,0.4353,1.1366,3.4432,3.1236,6.6842,22.274,36.33,42.82,71.707,56.419,97.142,2.4257,4.537,4.894,8.2495,5.4853,8.25,0.59122,0.00055,4.7327-9.1115,9.2033-20.249zm41.818-129.39c5.7014-24.132,11.825-61.595,13.1-80.143,0.57639-8.384,0.81591-56.062,0.33264-66.215-0.89522-18.806-8.5609-49.176-16.28-64.5-9.4694-18.797-19.276-27.453-35.858-31.648-21.146-5.3504-52.639,2.0036-90.391,21.108-20.912,10.582-38.377,21.61-60.815,38.4-23.976,17.941-56.685,46.461-56.685,49.426,0,0.80905,2.8952,4.5401,6.4339,8.2913,21.054,22.318,65.958,78.464,82.65,103.34,2.429,3.62,5.3163,6.7943,6.4163,7.054,1.1,0.25972,10.775,1.418,21.5,2.574,36.872,3.9742,79.468,10.732,112.5,17.848,15.088,3.2504,15.015,3.274,17.096-5.5354zm-545.1,5.0684c31.892-6.8122,75.584-13.66,111-17.398,11-1.1608,20.921-2.3028,22.047-2.5378,1.1974-0.24995,5.0958-4.6946,9.3931-10.709,12.232-17.12,34.088-45.322,48.655-62.782,14.233-17.06,35.703-41.448,37.425-42.512,2.7292-1.6867,0.18218-5.0442-12.269-16.174-40.476-36.179-79.619-62.684-117.06-79.263-31.42-13.914-59.984-19.634-78.013-15.623-17.587,3.9128-27.668,12.057-36.575,29.547-12.422,24.394-17.588,51.591-17.574,92.524,0.0116,34.989,3.7743,66.208,13.077,108.5,3.9578,17.993,4.2857,19.001,6.1823,18.995,0.9413-0.003,7.1115-1.1586,13.711-2.5684zm267-25.302c24.2,0.13949,47.676,0.28102,52.168,0.3145,4.4926,0.0335,8.497-0.26846,8.8986-0.671,0.40157-0.40253-0.57423-2.6147-2.1684-4.9159-8.3416-12.041-52.507-65.16-59.138-71.126-1.1036-0.99307-2.6823-1.5014-3.586-1.1546-3.3809,1.2974-38.56,42.452-57.566,67.345-5.4076,7.0824-6.8696,9.6384-5.8992,10.313,0.70964,0.49326,6.2402,0.61449,12.29,0.26939,6.05-0.3451,30.8-0.51333,55-0.37384z"/>
   <path id="path3070" fill="#434343" d="m342.21,1145c-47.317-5.9049-78.324-37.527-92.982-94.826-6.3859-24.963-7.965-39.943-7.9583-75.5,0.008-44.669,3.8953-75.939,16.013-128.82,1.2023-5.2472,1.3718-7.6311,0.59773-8.4052-0.59431-0.59431-10.888-4.327-22.875-8.2948-30.373-10.054-47.311-16.908-72.795-29.457-49.25-24.31-84.519-50.17-108.44-79.57-33.923-41.69-39.127-85.27-15.097-126.42,23.597-40.4,75.336-79.01,144.55-107.87,16.708-6.9664,45.533-17.255,61-21.772,7.15-2.0882,13.591-4.3232,14.314-4.9668,1.0772-0.95934,0.77245-3.4935-1.6922-14.07-6.3255-27.145-11.652-59.52-14.299-86.9-1.8628-19.274-1.5533-64.941,0.54899-81,6.6468-50.775,22.399-86.359,47.39-107.06,8.6896-7.1965,24.081-14.789,36.738-18.123,8.8936-2.3425,11.936-2.642,27.5-2.7073,19.718-0.0827,29.542,1.3122,49.42,7.0171,52.52,15.073,112.14,51.962,170.79,105.68,5.3384,4.8892,10.138,8.733,10.665,8.5416,0.52741-0.19137,7.1333-5.9696,14.68-12.84,69.092-62.907,136.03-100.56,192.97-108.56,22.835-3.205,46.431-0.47861,63.725,7.3629,38.909,17.642,63.52,64.318,69.697,132.19,1.3521,14.856,1.3499,52.831-0.004,70.05-1.6772,21.329-5.6458,48.602-10.615,72.95-6.2626,30.684-5.9426,27.781-3.1866,28.911,1.2976,0.53203,9.1093,3.0643,17.359,5.6272,56.881,17.671,109.18,43.046,147.56,71.594,15.145,11.265,37.006,32.91,45.823,45.368,7.9904,11.291,16.376,28.418,19.341,39.5,1.9226,7.1864,2.2637,10.895,2.2075,24-0.06,13.877-0.3511,16.443-2.784,24.5-6.7359,22.309-19.423,42.324-39.628,62.516-37.954,37.931-98.539,71.068-175.52,96-7.15,2.3156-13.329,4.5109-13.731,4.8784-0.40223,0.36749,0.84401,7.7584,2.7694,16.424,4.2729,19.232,8.8003,46.09,11.156,66.181,2.5364,21.634,2.5448,79.709,0.0141,97.5-10.281,72.278-38.512,114.67-84.986,127.62-13.627,3.7977-37.298,4.4402-54.629,1.4827-54.293-9.2646-116.99-44.294-179.59-100.34-7.7-6.8937-15.322-13.936-16.937-15.649-1.6154-1.7134-3.4647-3.1152-4.1095-3.1152-0.64482,0-5.3981,3.9015-10.563,8.6699-68.584,63.321-138.38,102.2-198.89,110.8-9.5351,1.355-27.939,1.7981-35.499,0.8547zm486-47.538c21.793-4.7127,38.598-26.704,47.484-62.139,5.5783-22.243,6.512-32.021,6.5075-68.149-0.003-25.532-0.40714-36.281-1.785-47.5-3.8858-31.638-11.769-71.426-14.348-72.416-0.74356-0.28533-7.766,0.84136-15.605,2.5038-33.847,7.1775-78.475,14.111-115.25,17.906-23.097,2.3831-20.257,0.84599-31.5,17.049-18.022,25.973-48.297,64.592-70.412,89.816-6.9237,7.8974-12.588,14.761-12.588,15.253,0,1.0796,10.873,11.459,24.5,23.388,69.708,61.022,140.28,93.527,183,84.288zm-445.5-1.6758c41.74-9.5791,91.397-37.061,139-76.927,13.301-11.139,31-27.489,31-28.636,0-0.65253-3.4371-4.9804-7.638-9.6176-23.291-25.709-52.399-61.442-73.668-90.431-6.4562-8.8-12.611-16.945-13.677-18.1-1.6112-1.7454-3.5896-2.2128-11.728-2.7708-33.957-2.3282-94.465-11.008-130.11-18.665-5.1239-1.1007-9.7242-1.7491-10.223-1.4409-2.6895,1.6622-11.908,48.952-15.493,79.476-2.2589,19.235-3.0335,56.461-1.5192,73.014,5.1559,56.359,22.969,88.816,52.453,95.571,8.3096,1.904,30.274,1.1265,41.598-1.4724zm211.05-147.65c20.896-23.613,57.958-70.412,57.958-73.184,0-1.2695-1.0041-1.3908-6.25-0.75475-3.4375,0.41677-33.138,0.76804-66,0.78061-32.862,0.0126-59.75,0.33585-59.75,0.71841,0,3.0609,65.173,80.427,67.14,79.701,0.38946-0.14379,3.4956-3.4114,6.9026-7.2614zm37.458-120.52c15.4-0.5467,34.3-1.4241,42-1.9498,16.352-1.1163,13.589,0.90261,26.804-19.583,18.249-28.288,37.165-59.808,53.914-89.836,13.286-23.819,35.782-67.829,35.782-70.001,0-0.94199-5.6892-12.602-12.643-25.911-20.42-39.086-39.53-72.582-61.159-107.2-19.793-31.68-27.919-43.403-30.457-43.943-14.202-3.0218-136.78-4.22-178.24-1.7424-12.1,0.72303-22.747,1.5279-23.659,1.7887-1.7226,0.49211-21.004,29.198-36.537,54.397-19.13,31.034-42.813,73.748-59.381,107.1l-8.2467,16.601,12.794,24.899c19.133,37.236,39.456,73.2,58.996,104.4,12.487,19.938,30.036,46.398,31.599,47.645,1.2639,1.0083,30.622,2.7318,62.935,3.6948,23.137,0.68948,60.359,0.53295,85.5-0.35954zm-66.487-84.113c-16.452-3.4519-29.404-9.5102-42.359-19.814-41.788-33.236-49.589-94.325-17.578-137.66,12.495-16.914,31.052-29.647,52.424-35.97,11.055-3.2706,31.985-4.4275,44.297-2.4483,30.918,4.9702,57.945,24.981,72.233,53.48,12.279,24.494,14.012,52.086,4.9071,78.153-16.316,46.712-65.451,74.425-113.92,64.255zm-144.01,74.734c0-0.76941-4.5776-8.7569-10.173-17.75-17.872-28.726-31.632-52.775-52.227-91.278-4.0282-7.5306-3.6136-8.1725-16.991,26.306-10.709,27.601-22.78,62.939-22.402,65.581,0.23346,1.6309,1.696,2.382,7.292,3.7453,13.958,3.4003,80.917,14.049,92.25,14.671,1.3199,0.0724,2.25-0.4548,2.25-1.2755zm357-3.2362c33.667-4.805,74.892-12.919,75.648-14.89,1.3173-3.4328-35.046-97.475-37.69-97.475-0.45344,0-4.7572,7.3125-9.564,16.25-15.561,28.934-39.712,70.681-52.071,90.01-2.3774,3.7181-4.3225,7.4728-4.3225,8.3438,0,1.8018-0.71461,1.859,28-2.2392zm-500.28-40.36c13.795-40.886,27.955-77.754,41.671-108.5,4.1712-9.35,7.5874-17.876,7.5916-18.946,0.004-1.0702-3.6464-10.295-8.1125-20.5-15.426-35.247-29.873-72.861-40.351-105.05-2.5956-7.975-5.1545-15.03-5.6864-15.678-1.1433-1.3922-3.4485-0.79357-28.342,7.3603-92.235,30.211-159.02,76.936-171.89,120.25-10.976,36.959,32.698,85.82,110.89,124.06,9.9,4.8418,23.85,11.172,31,14.068,18.531,7.5047,52.547,18.949,55.5,18.673,2.2912-0.21455,2.9368-1.5286,7.7297-15.734zm641.96,8.1219c65.065-21.47,117.69-50.464,149.89-82.575,19.868-19.818,29.428-37.375,29.428-54.047,0-17.152-9.2582-33.756-30.151-54.072-25.284-24.586-61.83-46.495-110.35-66.155-15.141-6.1347-58.394-20.528-59.924-19.941-0.68685,0.26357-2.7207,5.1341-4.5197,10.823-8.9069,28.168-27.25,75.66-42.222,109.32l-8.8844,19.972,8.4214,18.528c17.068,37.552,28.981,67.198,40.799,101.53,3.7866,11,7.0832,20.562,7.3258,21.25,0.24261,0.6875,0.87659,1.25,1.4088,1.25,0.53226,0,8.9839-2.6451,18.781-5.8781zm-554.59-210.37c16.11-29.981,45.29-80.012,53.02-90.904,2.1603-3.044,2.4634-5.8456,0.6324-5.8456-3.1551,0-44.165,6.3446-61.249,9.4756-24.293,4.4524-36.52,7.1448-37.67,8.2948-1.4934,1.4934,15.284,50.057,27.889,80.73,2.4864,6.05,4.9057,12.012,5.3762,13.25,0.47049,1.2375,1.2776,2.25,1.7937,2.25,0.51603,0,5.1092-7.7625,10.207-17.25zm458.69-0.25c14.964-37.008,28.651-76.908,26.872-78.335-2.4618-1.9751-41.169-9.517-75.296-14.671-12.725-1.9217-23.637-3.494-24.25-3.494-1.9947,0-1.1856,2.5794,2.6962,8.595,11.634,18.029,34.81,57.696,50.192,85.905,10.996,20.166,10.914,20.046,12.523,18.3,0.65854-0.71511,3.9267-8.0502,7.2625-16.3zm-493.65-129.5c35.546-7.1605,78.823-13.694,113.22-17.094l12.856-1.2704,3.7185-5.067c33.048-45.034,51.132-67.638,79.961-99.949l12.391-13.888-8.3908-7.9863c-10.53-10.022-29.904-26.281-44.891-37.673-60.983-46.353-121.67-70.358-158.27-62.602-15.9,3.3693-27.183,13.326-36.297,32.031-20.645,42.371-21.702,115.41-2.8898,199.71,3.7127,16.637,4.7412,19.281,7.1425,18.36,0.75105-0.2882,10.401-2.3442,21.445-4.569zm534.94,2.8725c3.5031-6.5457,12.806-62.467,15.005-90.193,1.4984-18.898,0.67035-63.4-1.4361-77.178-7.4903-48.993-25.512-77.513-52.072-82.407-38.467-7.0876-99.638,19.237-163.43,70.332-17.435,13.965-43.139,37.338-43.139,39.226,0,0.87306,3.9492,5.9212,8.7761,11.218,24.135,26.485,53.827,63.657,78.095,97.767l7.2117,10.136,7.7084,0.68613c31.703,2.8219,87.173,11.31,120.71,18.47,21.717,4.637,21.153,4.5885,22.569,1.9417zm-215.3-27.69c0.61314-1.8394-23.998-33.057-45.796-58.09-16.09-18.478-17.553-19.845-19.77-18.478-6.107,3.7647-65.139,75.063-63.861,77.13,0.80636,1.3048,128.99,0.7474,129.43-0.56276z"/>
   <path id="path3068" fill="#000" d="m801.21,1144.5c-46.533-3.3671-107.43-32.306-165-78.404-12.247-9.8071-39.117-33.31-44.446-38.876-1.8954-1.9796-3.9982-3.5993-4.6729-3.5993-0.67471,0-5.8739,4.3231-11.554,9.607-62.68,58.309-133.02,98.589-190.33,108.99-12.43,2.2569-42.805,2.5597-52,0.5184-50.08-11.118-79.001-51.277-89.072-123.69-2.1456-15.426-2.9585-55.468-1.5112-74.435,2.3215-30.422,6.5027-58.074,13.63-90.138,1.9118-8.6009,3.2117-16.327,2.8888-17.168-0.35476-0.9245-5.8022-3.1591-13.762-5.6453-93.44-29.09-166.82-74.7-200.36-124.45-5.473-8.12-12.51-22.37-15.58-31.55-7.806-23.36-5.936-48.98,5.289-72.5,25.354-53.12,96.833-101.75,196.97-134.02,27.04-8.713,28.537-9.345,28.397-11.988-0.0566-1.0669-1.7768-9.3649-3.8229-18.44-20.368-90.341-18.973-173.06,3.7919-224.83,7.6703-17.444,18.901-33.22,30.402-42.707,7.2447-5.9758,20.137-12.988,30.123-16.383,19.506-6.6328,48.9-6.4855,76.127,0.38144,54.318,13.699,116.11,51.207,179.22,108.79,4.6717,4.2625,8.8924,7.7429,9.3793,7.7342,0.48695-0.009,6.0604-4.7981,12.385-10.643,65.032-60.098,133.26-100.02,187.69-109.84,12.547-2.2627,33.036-3.0043,43.677-1.5809,34.269,4.584,58.788,23.401,76.444,58.665,25.568,51.068,28.39,138.56,7.554,234.2-3.5437,16.266-3.6951,19.213-0.98701,19.213,2.9162,0,45.445,14.382,62.511,21.139,9.6876,3.8358,27.964,12.107,40.614,18.38,38.881,19.282,65.659,37.518,88.006,59.934,19.64,19.7,31.845,38.646,38.187,59.274,2.4685,8.0289,2.6963,10.171,2.6876,25.272-0.011,19.3-1.4617,26.107-8.9178,41.847-5.5358,11.686-8.8733,17.09-17.316,28.038-33.062,42.873-102.69,84.816-184.65,111.22-10.45,3.3672-19.59,6.6761-20.311,7.353-1.0779,1.0122-0.95561,2.634,0.68861,9.1345,6.163,24.366,11.966,61.415,14.188,90.589,1.5132,19.864,0.67087,67.127-1.4582,81.815-3.2407,22.357-7.741,40.73-13.571,55.407-21.286,53.585-57.422,77.388-111.54,73.473zm-427-46.354c40.246-6.5598,90.013-32.115,138.82-71.281,16.083-12.907,40.116-34.534,40.48-36.427,0.16368-0.84993-3.0653-5.2082-7.1755-9.685-25.061-27.296-61.159-72.145-83.988-104.35-5.4712-7.7179-3.0215-6.9261-28.633-9.2546-35.083-3.1895-82.875-10.191-115.5-16.92-9.8367-2.029-12.239-2.2416-13.326-1.1797-2.9294,2.861-12.216,50.45-15.82,81.071-2.5181,21.393-2.547,68.396-0.052,84.5,3.7276,24.059,9.5032,42.694,17.465,56.352,5.1842,8.8929,15.394,19.11,22.681,22.695,11.719,5.7668,27.513,7.3365,45.053,4.4776zm454.96-0.056c22.516-5.8648,38.258-26.888,47.427-63.341,5.7128-22.711,6.5859-31.524,6.6009-66.628,0.0173-40.465-2.333-62.515-10.983-103.05-3.7455-17.55-4.9637-20.119-9.003-18.991-4.5433,1.2692-42.066,8.6057-56,10.949-18.266,3.072-54.498,7.9078-75.5,10.077-8.525,0.88038-16.175,1.8025-17,2.0491-0.825,0.24662-3.075,2.7873-5,5.6459-18.809,27.932-52.675,71.437-78.74,101.15-6.1929,7.0601-11.26,13.317-11.26,13.904,0,0.58718,3.513,4.3312,7.8066,8.3201,41.045,38.131,76.845,63.776,114.23,81.828,28.04,13.538,49.132,19.428,69.999,19.546,7.3394,0.042,13.68-0.4919,17.419-1.4658zm-230.76-154.1c24.888-28.645,54.299-66.23,54.299-69.391,0-1.8622-0.4028-1.9475-5.75-1.2171-3.1625,0.43197-33.312,0.7885-67,0.79229-44.849,0.005-61.25,0.30939-61.25,1.1366,0,3.2916,65.223,81.43,67.971,81.43,0.35849,0,5.6369-5.7375,11.73-12.75zm57.625-116.26c28.993-1.4278,30.568-1.6602,33.613-4.9597,6.5341-7.0803,43.319-67.049,65.28-106.42,13.146-23.569,35.782-67.82,35.782-69.951,0-1.8246-19.532-39.728-32.289-62.66-26.663-47.929-66.796-112.42-71.455-114.83-6.4942-3.3544-132.97-5.0357-178.76-2.3763-12.1,0.7029-23.011,1.4952-24.248,1.7607-1.5685,0.33687-5.5213,5.3878-13.081,16.714-29.278,43.87-58.709,94.77-83.685,144.73l-8.7478,17.499,10.38,20.485c18.622,36.749,38.927,72.93,59.217,105.52,17.787,28.567,33.78,52.403,35.491,52.896,1.4843,0.42774,39.435,2.1478,66.673,3.0218,16.798,0.53902,84.433-0.37215,105.83-1.4257zm-89.431-84.483c-23.038-4.3715-44.798-17.352-58.956-35.169-7.6456-9.6212-16.209-27.045-19.091-38.841-2.7695-11.339-3.0332-33.042-0.53595-44.115,4.407-19.542,13.382-35.757,27.409-49.517,16.838-16.518,35.414-25.241,59.361-27.877,18.473-2.0327,36.862,1.3508,54.419,10.013,25.931,12.794,43.557,34.873,51.694,64.754,1.7195,6.3146,2.1089,10.6,2.112,23.242,0.003,13.477-0.33097,16.756-2.5605,25.12-9.4788,35.559-35.647,61.547-71.503,71.009-10.26,2.7076-31.676,3.4059-42.348,1.3808zm-144.39,76.489c0.34031-0.55064-4.7521-9.6631-11.317-20.25-18.422-29.71-38.951-65.477-48.942-85.269-1.662-3.2925-3.9425-7.11-5.0676-8.4833-1.8086-2.2076-2.2113-2.3231-3.474-0.99696-1.9111,2.0071-14.634,34.193-24.508,62-8.9469,25.195-11.681,34.285-10.913,36.286,0.92471,2.4098,44.208,10.161,92.721,16.604,9.2228,1.2249,10.802,1.2399,11.501,0.10899zm344.26-2.035c34.561-4.7734,84.719-14.213,87.01-16.375,1.0169-0.95951,0.19482-4.3568-4.1482-17.143-6.2463-18.389-13.898-38.673-22.501-59.648-7.5107-18.312-9.902-23.032-11.423-22.547-0.65797,0.20976-4.7287,6.8767-9.046,14.815-17.35,31.904-42.494,75.25-56.3,97.058-1.6659,2.6315-1.3204,5.8758,0.62566,5.8758,0.57153,0,7.6732-0.91625,15.781-2.0361zm-486.8-46.97c11.347-34.359,23.013-64.582,39.648-102.72,4.6105-10.569,8.3827-20.035,8.3827-21.036,0-1.0006-3.4176-9.453-7.5946-18.783-11.679-26.088-27.275-66.139-37.353-95.927-5.0173-14.829-9.6013-27.259-10.187-27.62-2.0064-1.24-42.309,11.867-64.866,21.096-84.291,34.485-138,81.419-138,120.59,0,28.618,32.053,65.625,83.5,96.405,14.844,8.881,41.444,21.98,60,29.545,18.362,7.4868,54.362,19.545,57.35,19.209,2.1235-0.23884,3.0012-2.2372,9.1197-20.764zm640.59,12.67c67.278-22.491,121.82-53.004,152.3-85.208,31.709-33.498,35.189-58.954,12.231-89.462-7.0787-9.4067-24.896-26.388-37.525-35.765-30.896-22.94-76.452-45.06-125.59-60.985-22.72-7.3626-23.496-7.5505-24.729-5.9906-0.53922,0.68218-3.1281,7.7653-5.7532,15.74-11.62,35.303-26.575,73.425-43.912,111.94l-5.5998,12.44,9.1225,20.06c17.071,37.538,32.033,75.155,42.383,106.56,4.5874,13.919,5.9373,17,7.4476,17,0.38046,0,9.2129-2.8486,19.628-6.3303zm-558.16-203.94c14.556-27.735,46.08-82.249,55.751-96.411,2.9741-4.355,3.5496-6.7723,1.8608-7.8161-3.2084-1.9829-97.651,14.712-100.75,17.81-1.0449,1.0449,0.004,5.088,5.638,21.735,9.8429,29.082,26.038,71.726,28.37,74.701,1.968,2.511,3.3482,0.99631,9.1292-10.019zm459.77-1.2312c14.484-35.266,31.149-82.367,29.873-84.432-1.6914-2.7368-39.61-9.9451-98.29-18.685-5.3324-0.79423-5.811,1.413-1.7148,7.9091,15.346,24.338,42.141,70.492,56.9,98.012,3.5582,6.6347,5.7504,9.7061,6.7808,9.5,0.8949-0.17897,3.5544-5.2515,6.4511-12.304zm-469.17-138.98c25.324-4.5659,55.161-8.8305,81.948-11.713l21.448-2.308,3.7613-5.0015c2.0687-2.7508,10.088-13.49,17.82-23.864,21.137-28.359,38.639-49.794,62.722-76.819,6.2157-6.9748,11.301-13.342,11.301-14.15,0-1.4147-12.925-13.742-27.5-26.228-48.511-41.559-101.1-71.471-142.5-81.045-14.221-3.2891-30.203-4.0906-40-2.006-11.465,2.4396-18.812,6.5301-26.348,14.669-28.473,30.753-36.197,105.07-20.053,192.94,4.0655,22.127,9.001,43.135,10.327,43.954,0.65412,0.40426,7.126-0.53603,14.382-2.0896,7.256-1.5535,21.968-4.4067,32.693-6.3403zm512.36,7.226c2.146-3.4247,8.2619-32.844,11.59-55.75,4.0232-27.693,4.5368-35.327,4.5413-67.5,0.005-35.138-0.97644-45.356-6.4178-66.817-5.806-22.9-12.397-35.97-24.077-47.743-11.764-11.858-22.292-15.561-41.5-14.598-13.396,0.67206-22.024,2.4648-39,8.104-42,13.951-91.754,46.441-141.25,92.236-10.247,9.4813-11.685,11.882-8.6306,14.416,4.5052,3.7389,35.797,40.572,53.012,62.401,7.1171,9.0242,31.164,41.338,36.96,49.666l3.0912,4.4418,12.409,1.2544c37.383,3.779,84.53,11.032,117.41,18.061,9.9,2.1167,18.552,3.8997,19.227,3.9624,0.67482,0.0626,1.8614-0.89859,2.6368-2.1361zm-214.54-28.09c0.34826-1.7706-3.0626-6.4529-21.02-28.855-21.409-26.708-41.882-49.804-44.147-49.804-2.4313,0-23.067,23.105-45.551,51-18.479,22.927-21.375,26.847-20.85,28.215,0.39511,1.0296,13.474,1.2636,65.87,1.1788,59.559-0.0964,65.406-0.25078,65.698-1.7345z"/>
  </g>
 </g>
</svg>
